<svg xmlns="http://www.w3.org/2000/svg" width="2128" height="316"><text x="0" y="12" font-size="9" font-family="sans-serif" fill="gray">t=0</text><g transform="translate(0, 14)"><svg width="300" height="300" viewBox="0 0 300 300" xmlns="http://www.w3.org/2000/svg"><rect width="300" height="300" fill="#f0f0f0" stroke="#ccc"/><circle cx="299" cy="114" r="5" fill="rgb(31,119,180)" opacity="0.8"/><circle cx="113" cy="267" r="4" fill="rgb(175,199,232)" opacity="0.8"/></svg></g><text x="304" y="12" font-size="9" font-family="sans-serif" fill="gray">t=10</text><g transform="translate(304, 14)"><svg width="300" height="300" viewBox="0 0 300 300" xmlns="http://www.w3.org/2000/svg"><rect width="300" height="300" fill="#f0f0f0" stroke="#ccc"/><circle cx="262" cy="104" r="8" fill="rgb(31,119,180)" opacity="0.8"/><circle cx="110" cy="225" r="5" fill="rgb(175,199,232)" opacity="0.8"/><circle cx="11" cy="68" r="4" fill="rgb(255,127,14)" opacity="0.8"/><circle cx="62" cy="1" r="1" fill="rgb(255,187,120)" opacity="0.8"/><circle cx="47" cy="10" r="5" fill="rgb(44,160,44)" opacity="0.8"/><circle cx="289" cy="160" r="5" fill="rgb(152,223,138)" opacity="0.8"/><circle cx="140" cy="286" r="1" fill="rgb(214,39,40)" opacity="0.8"/></svg></g><text x="608" y="12" font-size="9" font-family="sans-serif" fill="gray">t=20</text><g transform="translate(608, 14)"><svg width="300" height="300" viewBox="0 0 300 300" xmlns="http://www.w3.org/2000/svg"><rect width="300" height="300" fill="#f0f0f0" stroke="#ccc"/><circle cx="249" cy="97" r="12" fill="rgb(31,119,180)" opacity="0.8"/><circle cx="103" cy="168" r="7" fill="rgb(175,199,232)" opacity="0.8"/><circle cx="20" cy="38" r="5" fill="rgb(255,127,14)" opacity="0.8"/><circle cx="31" cy="25" r="1" fill="rgb(255,187,120)" opacity="0.8"/><circle cx="42" cy="46" r="7" fill="rgb(44,160,44)" opacity="0.8"/><circle cx="276" cy="131" r="8" fill="rgb(152,223,138)" opacity="0.8"/><circle cx="131" cy="255" r="2" fill="rgb(214,39,40)" opacity="0.8"/><circle cx="94" cy="299" r="1" fill="rgb(255,152,150)" opacity="0.8"/><circle cx="103" cy="8" r="4" fill="rgb(148,103,189)" opacity="0.8"/><circle cx="65" cy="287" r="3" fill="rgb(197,176,213)" opacity="0.8"/><circle cx="16" cy="181" r="6" fill="rgb(140,86,75)" opacity="0.8"/><circle cx="118" cy="1" r="3" fill="rgb(196,156,148)" opacity="0.8"/><circle cx="0" cy="217" r="2" fill="rgb(227,119,194)" opacity="0.8"/></svg></g><text x="912" y="12" font-size="9" font-family="sans-serif" fill="gray">t=30</text><g transform="translate(912, 14)"><svg width="300" height="300" viewBox="0 0 300 300" xmlns="http://www.w3.org/2000/svg"><rect width="300" height="300" fill="#f0f0f0" stroke="#ccc"/><circle cx="18" cy="228" r="2" fill="rgb(31,119,180)" opacity="0.8"/><circle cx="105" cy="141" r="11" fill="rgb(175,199,232)" opacity="0.8"/><circle cx="28" cy="36" r="8" fill="rgb(255,127,14)" opacity="0.8"/><circle cx="36" cy="21" r="2" fill="rgb(255,187,120)" opacity="0.8"/><circle cx="49" cy="1" r="11" fill="rgb(44,160,44)" opacity="0.8"/><circle cx="276" cy="123" r="12" fill="rgb(152,223,138)" opacity="0.8"/><circle cx="134" cy="256" r="2" fill="rgb(214,39,40)" opacity="0.8"/><circle cx="76" cy="299" r="1" fill="rgb(255,152,150)" opacity="0.8"/><circle cx="97" cy="1" r="6" fill="rgb(148,103,189)" opacity="0.8"/><circle cx="71" cy="270" r="4" fill="rgb(197,176,213)" opacity="0.8"/><circle cx="27" cy="228" r="8" fill="rgb(140,86,75)" opacity="0.8"/><circle cx="119" cy="6" r="4" fill="rgb(196,156,148)" opacity="0.8"/><circle cx="235" cy="66" r="13" fill="rgb(227,119,194)" opacity="0.8"/><circle cx="263" cy="99" r="13" fill="rgb(247,182,210)" opacity="0.8"/><circle cx="102" cy="267" r="3" fill="rgb(127,127,127)" opacity="0.8"/><circle cx="69" cy="1" r="4" fill="rgb(199,199,199)" opacity="0.8"/></svg></g><text x="1216" y="12" font-size="9" font-family="sans-serif" fill="gray">t=40</text><g transform="translate(1216, 14)"><svg width="300" height="300" viewBox="0 0 300 300" xmlns="http://www.w3.org/2000/svg"><rect width="300" height="300" fill="#f0f0f0" stroke="#ccc"/><circle cx="6" cy="210" r="3" fill="rgb(31,119,180)" opacity="0.8"/><circle cx="64" cy="2" r="12" fill="rgb(175,199,232)" opacity="0.8"/><circle cx="14" cy="47" r="12" fill="rgb(255,127,14)" opacity="0.8"/><circle cx="43" cy="6" r="3" fill="rgb(255,187,120)" opacity="0.8"/><circle cx="255" cy="114" r="12" fill="rgb(44,160,44)" opacity="0.8"/><circle cx="217" cy="269" r="4" fill="rgb(152,223,138)" opacity="0.8"/><circle cx="145" cy="216" r="3" fill="rgb(214,39,40)" opacity="0.8"/><circle cx="62" cy="280" r="1" fill="rgb(255,152,150)" opacity="0.8"/><circle cx="77" cy="5" r="10" fill="rgb(148,103,189)" opacity="0.8"/><circle cx="80" cy="259" r="5" fill="rgb(197,176,213)" opacity="0.8"/><circle cx="39" cy="194" r="12" fill="rgb(140,86,75)" opacity="0.8"/><circle cx="93" cy="1" r="7" fill="rgb(196,156,148)" opacity="0.8"/><circle cx="95" cy="2" r="5" fill="rgb(227,119,194)" opacity="0.8"/><circle cx="126" cy="266" r="4" fill="rgb(247,182,210)" opacity="0.8"/><circle cx="223" cy="300" r="4" fill="rgb(127,127,127)" opacity="0.8"/><circle cx="94" cy="118" r="11" fill="rgb(199,199,199)" opacity="0.8"/><circle cx="72" cy="115" r="11" fill="rgb(188,189,34)" opacity="0.8"/><circle cx="281" cy="112" r="13" fill="rgb(219,219,141)" opacity="0.8"/><circle cx="183" cy="286" r="5" fill="rgb(23,190,207)" opacity="0.8"/><circle cx="230" cy="85" r="12" fill="rgb(158,218,229)" opacity="0.8"/><circle cx="66" cy="25" r="12" fill="rgb(31,119,180)" opacity="0.8"/><circle cx="224" cy="66" r="9" fill="rgb(175,199,232)" opacity="0.8"/><circle cx="224" cy="66" r="9" fill="rgb(255,127,14)" opacity="0.8"/><circle cx="229" cy="66" r="9" fill="rgb(255,187,120)" opacity="0.8"/><circle cx="229" cy="66" r="9" fill="rgb(44,160,44)" opacity="0.8"/><circle cx="227" cy="90" r="9" fill="rgb(152,223,138)" opacity="0.8"/><circle cx="227" cy="90" r="9" fill="rgb(214,39,40)" opacity="0.8"/></svg></g><text x="1520" y="12" font-size="9" font-family="sans-serif" fill="gray">t=50</text><g transform="translate(1520, 14)"><svg width="300" height="300" viewBox="0 0 300 300" xmlns="http://www.w3.org/2000/svg"><rect width="300" height="300" fill="#f0f0f0" stroke="#ccc"/><circle cx="11" cy="235" r="5" fill="rgb(31,119,180)" opacity="0.8"/><circle cx="216" cy="104" r="12" fill="rgb(175,199,232)" opacity="0.8"/><circle cx="14" cy="1" r="7" fill="rgb(255,127,14)" opacity="0.8"/><circle cx="37" cy="4" r="5" fill="rgb(255,187,120)" opacity="0.8"/><circle cx="250" cy="85" r="12" fill="rgb(44,160,44)" opacity="0.8"/><circle cx="210" cy="237" r="6" fill="rgb(152,223,138)" opacity="0.8"/><circle cx="148" cy="173" r="5" fill="rgb(214,39,40)" opacity="0.8"/><circle cx="51" cy="255" r="1" fill="rgb(255,152,150)" opacity="0.8"/><circle cx="66" cy="85" r="11" fill="rgb(148,103,189)" opacity="0.8"/><circle cx="87" cy="212" r="7" fill="rgb(197,176,213)" opacity="0.8"/><circle cx="22" cy="297" r="2" fill="rgb(140,86,75)" opacity="0.8"/><circle cx="129" cy="19" r="10" fill="rgb(196,156,148)" opacity="0.8"/><circle cx="106" cy="1" r="8" fill="rgb(227,119,194)" opacity="0.8"/><circle cx="146" cy="277" r="4" fill="rgb(247,182,210)" opacity="0.8"/><circle cx="223" cy="273" r="4" fill="rgb(127,127,127)" opacity="0.8"/><circle cx="58" cy="183" r="11" fill="rgb(199,199,199)" opacity="0.8"/><circle cx="75" cy="180" r="12" fill="rgb(188,189,34)" opacity="0.8"/><circle cx="292" cy="1" r="4" fill="rgb(219,219,141)" opacity="0.8"/><circle cx="187" cy="296" r="5" fill="rgb(23,190,207)" opacity="0.8"/><circle cx="256" cy="112" r="12" fill="rgb(158,218,229)" opacity="0.8"/><circle cx="0" cy="12" r="13" fill="rgb(31,119,180)" opacity="0.8"/><circle cx="299" cy="160" r="0" fill="rgb(175,199,232)" opacity="0.8"/><circle cx="0" cy="293" r="3" fill="rgb(255,127,14)" opacity="0.8"/><circle cx="62" cy="25" r="10" fill="rgb(255,187,120)" opacity="0.8"/><circle cx="45" cy="7" r="10" fill="rgb(44,160,44)" opacity="0.8"/><circle cx="232" cy="62" r="9" fill="rgb(152,223,138)" opacity="0.8"/><circle cx="273" cy="117" r="13" fill="rgb(214,39,40)" opacity="0.8"/><circle cx="0" cy="17" r="13" fill="rgb(255,152,150)" opacity="0.8"/><circle cx="79" cy="4" r="12" fill="rgb(148,103,189)" opacity="0.8"/><circle cx="62" cy="3" r="12" fill="rgb(197,176,213)" opacity="0.8"/><circle cx="239" cy="69" r="12" fill="rgb(140,86,75)" opacity="0.8"/><circle cx="256" cy="104" r="11" fill="rgb(196,156,148)" opacity="0.8"/><circle cx="62" cy="20" r="12" fill="rgb(227,119,194)" opacity="0.8"/><circle cx="92" cy="4" r="12" fill="rgb(247,182,210)" opacity="0.8"/><circle cx="83" cy="94" r="11" fill="rgb(127,127,127)" opacity="0.8"/><circle cx="89" cy="128" r="11" fill="rgb(199,199,199)" opacity="0.8"/><circle cx="48" cy="111" r="11" fill="rgb(188,189,34)" opacity="0.8"/><circle cx="230" cy="57" r="9" fill="rgb(219,219,141)" opacity="0.8"/><circle cx="230" cy="45" r="9" fill="rgb(23,190,207)" opacity="0.8"/><circle cx="266" cy="75" r="9" fill="rgb(158,218,229)" opacity="0.8"/><circle cx="261" cy="76" r="9" fill="rgb(31,119,180)" opacity="0.8"/><circle cx="215" cy="42" r="9" fill="rgb(175,199,232)" opacity="0.8"/><circle cx="216" cy="34" r="9" fill="rgb(255,127,14)" opacity="0.8"/><circle cx="246" cy="69" r="9" fill="rgb(255,187,120)" opacity="0.8"/><circle cx="222" cy="68" r="9" fill="rgb(44,160,44)" opacity="0.8"/><circle cx="222" cy="68" r="9" fill="rgb(152,223,138)" opacity="0.8"/><circle cx="215" cy="118" r="9" fill="rgb(214,39,40)" opacity="0.8"/><circle cx="215" cy="118" r="9" fill="rgb(255,152,150)" opacity="0.8"/></svg></g><text x="1824" y="12" font-size="9" font-family="sans-serif" fill="gray">t=60</text><g transform="translate(1824, 14)"><svg width="300" height="300" viewBox="0 0 300 300" xmlns="http://www.w3.org/2000/svg"><rect width="300" height="300" fill="#f0f0f0" stroke="#ccc"/><circle cx="8" cy="216" r="7" fill="rgb(31,119,180)" opacity="0.8"/><circle cx="28" cy="5" r="13" fill="rgb(175,199,232)" opacity="0.8"/><circle cx="31" cy="1" r="10" fill="rgb(255,127,14)" opacity="0.8"/><circle cx="38" cy="13" r="8" fill="rgb(255,187,120)" opacity="0.8"/><circle cx="7" cy="6" r="2" fill="rgb(44,160,44)" opacity="0.8"/><circle cx="241" cy="231" r="8" fill="rgb(152,223,138)" opacity="0.8"/><circle cx="157" cy="168" r="7" fill="rgb(214,39,40)" opacity="0.8"/><circle cx="94" cy="219" r="1" fill="rgb(255,152,150)" opacity="0.8"/><circle cx="224" cy="58" r="12" fill="rgb(148,103,189)" opacity="0.8"/><circle cx="73" cy="212" r="10" fill="rgb(197,176,213)" opacity="0.8"/><circle cx="15" cy="265" r="2" fill="rgb(140,86,75)" opacity="0.8"/><circle cx="270" cy="85" r="11" fill="rgb(196,156,148)" opacity="0.8"/><circle cx="85" cy="1" r="12" fill="rgb(227,119,194)" opacity="0.8"/><circle cx="154" cy="272" r="4" fill="rgb(247,182,210)" opacity="0.8"/><circle cx="241" cy="247" r="5" fill="rgb(127,127,127)" opacity="0.8"/><circle cx="205" cy="19" r="12" fill="rgb(199,199,199)" opacity="0.8"/><circle cx="94" cy="11" r="11" fill="rgb(188,189,34)" opacity="0.8"/><circle cx="280" cy="1" r="6" fill="rgb(219,219,141)" opacity="0.8"/><circle cx="197" cy="277" r="5" fill="rgb(23,190,207)" opacity="0.8"/><circle cx="232" cy="104" r="9" fill="rgb(158,218,229)" opacity="0.8"/><circle cx="256" cy="1" r="2" fill="rgb(31,119,180)" opacity="0.8"/><circle cx="299" cy="169" r="1" fill="rgb(175,199,232)" opacity="0.8"/><circle cx="0" cy="283" r="3" fill="rgb(255,127,14)" opacity="0.8"/><circle cx="36" cy="97" r="12" fill="rgb(255,187,120)" opacity="0.8"/><circle cx="38" cy="132" r="12" fill="rgb(44,160,44)" opacity="0.8"/><circle cx="47" cy="1" r="10" fill="rgb(152,223,138)" opacity="0.8"/><circle cx="41" cy="1" r="10" fill="rgb(214,39,40)" opacity="0.8"/><circle cx="17" cy="1" r="10" fill="rgb(255,152,150)" opacity="0.8"/><circle cx="0" cy="5" r="13" fill="rgb(148,103,189)" opacity="0.8"/><circle cx="258" cy="97" r="11" fill="rgb(197,176,213)" opacity="0.8"/><circle cx="89" cy="1" r="11" fill="rgb(140,86,75)" opacity="0.8"/><circle cx="288" cy="110" r="13" fill="rgb(196,156,148)" opacity="0.8"/><circle cx="263" cy="111" r="11" fill="rgb(227,119,194)" opacity="0.8"/><circle cx="2" cy="13" r="13" fill="rgb(247,182,210)" opacity="0.8"/><circle cx="56" cy="171" r="12" fill="rgb(127,127,127)" opacity="0.8"/><circle cx="54" cy="167" r="12" fill="rgb(199,199,199)" opacity="0.8"/><circle cx="36" cy="1" r="12" fill="rgb(188,189,34)" opacity="0.8"/><circle cx="35" cy="11" r="10" fill="rgb(219,219,141)" opacity="0.8"/><circle cx="244" cy="82" r="10" fill="rgb(23,190,207)" opacity="0.8"/><circle cx="255" cy="108" r="13" fill="rgb(158,218,229)" opacity="0.8"/><circle cx="236" cy="93" r="10" fill="rgb(31,119,180)" opacity="0.8"/><circle cx="111" cy="4" r="10" fill="rgb(175,199,232)" opacity="0.8"/><circle cx="130" cy="6" r="10" fill="rgb(255,127,14)" opacity="0.8"/><circle cx="247" cy="70" r="13" fill="rgb(255,187,120)" opacity="0.8"/><circle cx="96" cy="96" r="12" fill="rgb(44,160,44)" opacity="0.8"/><circle cx="11" cy="2" r="13" fill="rgb(152,223,138)" opacity="0.8"/><circle cx="219" cy="103" r="12" fill="rgb(214,39,40)" opacity="0.8"/><circle cx="217" cy="93" r="13" fill="rgb(255,152,150)" opacity="0.8"/><circle cx="97" cy="15" r="12" fill="rgb(148,103,189)" opacity="0.8"/><circle cx="65" cy="9" r="12" fill="rgb(197,176,213)" opacity="0.8"/><circle cx="71" cy="1" r="11" fill="rgb(140,86,75)" opacity="0.8"/><circle cx="44" cy="20" r="12" fill="rgb(196,156,148)" opacity="0.8"/><circle cx="46" cy="30" r="12" fill="rgb(227,119,194)" opacity="0.8"/><circle cx="83" cy="82" r="12" fill="rgb(247,182,210)" opacity="0.8"/><circle cx="49" cy="86" r="12" fill="rgb(127,127,127)" opacity="0.8"/><circle cx="80" cy="168" r="12" fill="rgb(199,199,199)" opacity="0.8"/><circle cx="76" cy="145" r="12" fill="rgb(188,189,34)" opacity="0.8"/><circle cx="68" cy="95" r="12" fill="rgb(219,219,141)" opacity="0.8"/><circle cx="78" cy="67" r="12" fill="rgb(23,190,207)" opacity="0.8"/><circle cx="84" cy="75" r="12" fill="rgb(158,218,229)" opacity="0.8"/><circle cx="199" cy="118" r="10" fill="rgb(31,119,180)" opacity="0.8"/><circle cx="205" cy="114" r="10" fill="rgb(175,199,232)" opacity="0.8"/><circle cx="220" cy="61" r="10" fill="rgb(255,127,14)" opacity="0.8"/><circle cx="202" cy="47" r="10" fill="rgb(255,187,120)" opacity="0.8"/><circle cx="196" cy="145" r="9" fill="rgb(44,160,44)" opacity="0.8"/><circle cx="200" cy="131" r="9" fill="rgb(152,223,138)" opacity="0.8"/><circle cx="246" cy="48" r="9" fill="rgb(214,39,40)" opacity="0.8"/><circle cx="251" cy="49" r="9" fill="rgb(255,152,150)" opacity="0.8"/><circle cx="235" cy="52" r="10" fill="rgb(148,103,189)" opacity="0.8"/><circle cx="224" cy="44" r="10" fill="rgb(197,176,213)" opacity="0.8"/><circle cx="228" cy="63" r="9" fill="rgb(140,86,75)" opacity="0.8"/><circle cx="233" cy="62" r="9" fill="rgb(196,156,148)" opacity="0.8"/><circle cx="250" cy="74" r="9" fill="rgb(227,119,194)" opacity="0.8"/><circle cx="252" cy="72" r="9" fill="rgb(247,182,210)" opacity="0.8"/><circle cx="251" cy="6" r="10" fill="rgb(127,127,127)" opacity="0.8"/><circle cx="251" cy="10" r="10" fill="rgb(199,199,199)" opacity="0.8"/><circle cx="242" cy="13" r="10" fill="rgb(188,189,34)" opacity="0.8"/><circle cx="244" cy="26" r="10" fill="rgb(219,219,141)" opacity="0.8"/><circle cx="185" cy="72" r="9" fill="rgb(23,190,207)" opacity="0.8"/><circle cx="188" cy="72" r="9" fill="rgb(158,218,229)" opacity="0.8"/><circle cx="98" cy="1" r="5" fill="rgb(31,119,180)" opacity="0.8"/></svg></g></svg>