<svg width="400" height="400" viewBox="0 0 400 400" xmlns="http://www.w3.org/2000/svg"><rect width="400" height="400" fill="white"/><text x="200" y="16" text-anchor="middle" font-size="14" font-family="sans-serif">br_particles_kinetics traces</text><polyline points="46,81 39,105 59,96 73,89 94,114 118,103 116,84 106,74 95,114 84,79 73,71 89,49 68,60 62,68 70,61 88,70 90,56 113,81 105,98 125,109 129,148 140,142 151,169 144,162 141,204 154,224 162,213 158,218 155,233 149,260 142,236 137,262 143,282 161,284 187,296 190,296 195,288 193,275 201,273 203,259 228,263 212,247 216,230" fill="none" stroke="rgb(31,119,180)" stroke-width="1" opacity="0.7"/><polyline points="230,224 229,218 225,227 217,216 251,210 260,148" fill="none" stroke="rgb(175,199,232)" stroke-width="1" opacity="0.7"/><polyline points="230,224 233,226 243,230 228,243 232,253 244,251" fill="none" stroke="rgb(255,127,14)" stroke-width="1" opacity="0.7"/><polyline points="269,135 285,137 283,104 284,97 285,112 273,116" fill="none" stroke="rgb(255,187,120)" stroke-width="1" opacity="0.7"/><polyline points="269,135 278,110 289,144 285,146 284,183 280,166" fill="none" stroke="rgb(44,160,44)" stroke-width="1" opacity="0.7"/><polyline points="252,258 252,260 257,292 254,306 255,290 244,279" fill="none" stroke="rgb(152,223,138)" stroke-width="1" opacity="0.7"/><polyline points="252,258 246,249 260,264 291,267 292,285 306,296" fill="none" stroke="rgb(214,39,40)" stroke-width="1" opacity="0.7"/><polyline points="263,119 266,134 264,158 270,185 291,170 243,159" fill="none" stroke="rgb(255,152,150)" stroke-width="1" opacity="0.7"/><polyline points="263,119 270,125 263,116 243,132 267,115 276,101" fill="none" stroke="rgb(148,103,189)" stroke-width="1" opacity="0.7"/><polyline points="288,147 287,158 291,182 300,155 316,154 318,168" fill="none" stroke="rgb(197,176,213)" stroke-width="1" opacity="0.7"/><polyline points="288,147 279,148 265,168 255,154 261,141 244,130" fill="none" stroke="rgb(140,86,75)" stroke-width="1" opacity="0.7"/><polyline points="250,269 246,264 269,265 263,268 269,249 255,275" fill="none" stroke="rgb(196,156,148)" stroke-width="1" opacity="0.7"/><polyline points="250,269 239,277 274,278 265,294 258,306 275,282" fill="none" stroke="rgb(227,119,194)" stroke-width="1" opacity="0.7"/><polyline points="334,321 343,344 341,343 340,323 340,326 350,351" fill="none" stroke="rgb(247,182,210)" stroke-width="1" opacity="0.7"/><polyline points="334,321 337,314 338,326 361,311 357,306 356,325" fill="none" stroke="rgb(127,127,127)" stroke-width="1" opacity="0.7"/></svg>