<svg width="400" height="400" viewBox="0 0 400 400" xmlns="http://www.w3.org/2000/svg"><rect width="400" height="400" fill="white"/><text x="200" y="16" text-anchor="middle" font-size="14" font-family="sans-serif">comets_br_particles_kinetics traces</text><polyline points="284,0 299,10 295,6 293,0 290,13 299,16 294,16 282,21 300,22 295,4 286,13 295,24 293,13 306,3 309,2 300,4 299,3 308,0 307,0 302,0 311,10 310,22 317,7 319,0 319,0 310,0 322,3 312,4 325,2 323,4 321,0 326,0 326,0 320,0 305,5 312,0 317,0 318,5 317,27 300,24 300,27 299,19 302,18 299,19 298,12 292,9 286,12 281,4 282,9 266,9 254,14 263,10 266,6 268,2 268,9 273,23 264,13 269,16 282,8 272,8 273,9" fill="none" stroke="rgb(31,119,180)" stroke-width="1" opacity="0.7"/><polyline points="23,0 25,0 22,0 36,7 37,12 31,10 29,17 39,20 44,16 43,2 42,6 38,9 38,9 33,10 26,4 26,0 23,0 27,6 31,0 25,0 28,0 15,3 17,0 20,8 24,4 18,10 24,0" fill="none" stroke="rgb(175,199,232)" stroke-width="1" opacity="0.7"/><polyline points="198,195 187,180 184,170" fill="none" stroke="rgb(255,127,14)" stroke-width="1" opacity="0.7"/><polyline points="74,0 61,0 70,0 58,0 64,8 71,18 66,15 52,16 54,16 60,10 68,20 71,24 74,38 63,48 68,38 48,28 46,27 49,19 55,8 53,0 54,2 42,0 48,0 57,0 54,8 50,4 58,1 61,0 70,0 69,0 62,0 58,11 47,5 36,11 35,5 16,2 10,3 13,0 17,0 28,0 29,0 28,7 28,0 30,0" fill="none" stroke="rgb(255,187,120)" stroke-width="1" opacity="0.7"/><polyline points="203,0 201,0 195,12 194,1 209,5 208,2 217,0 217,2 226,0 216,0 207,9 199,23 212,26 224,28 224,35 233,38 227,30 233,20 230,24 225,18 212,26 214,32 215,43" fill="none" stroke="rgb(44,160,44)" stroke-width="1" opacity="0.7"/><polyline points="177,172 175,169 174,179 175,196 176,207 190,209 207,194 197,190" fill="none" stroke="rgb(152,223,138)" stroke-width="1" opacity="0.7"/><polyline points="177,172 171,179 179,170 188,173 190,189 191,181 192,184 211,181" fill="none" stroke="rgb(214,39,40)" stroke-width="1" opacity="0.7"/><polyline points="184,0 180,0 179,0 180,0 179,2 182,0 188,0 189,0 177,0 165,0 157,1 157,0 148,12 138,8 140,7 128,0 132,6 128,9 130,8 129,6 127,0 114,1 123,0 125,5 133,7 129,14 145,3 141,0 153,11 149,11 143,1 153,11 152,3 148,0 157,0 146,0 147,0 149,0 151,12 139,22 143,15 127,23 126,31 122,21 124,24 119,36 123,37 131,30 129,29 125,34 123,28 127,24 123,15 122,16 132,18 131,5 132,5 136,0" fill="none" stroke="rgb(255,152,150)" stroke-width="1" opacity="0.7"/><polyline points="207,400 193,400 190,397 189,395 184,393 179,395 176,382 168,372 171,388 165,379 166,375 155,380 162,374 160,375 171,376 168,382 174,389 191,397 194,396 189,400 196,400 198,400 203,397 208,400 195,385 185,391" fill="none" stroke="rgb(148,103,189)" stroke-width="1" opacity="0.7"/><polyline points="95,0 100,6 100,0 105,0 102,0 101,0 97,0 103,10 110,8 117,13 119,3 100,0 107,0 116,0 119,0 111,0 101,0 90,7 96,3 97,12 83,8 67,5 49,5 38,0 50,0 57,8 68,18 65,12 66,0 70,12 50,3 48,0 36,0 36,0 26,2 37,5" fill="none" stroke="rgb(197,176,213)" stroke-width="1" opacity="0.7"/><polyline points="168,0 168,3 160,0 172,0 169,17 184,9 173,3 172,11 163,5 168,5 166,16 163,6 150,5 139,6 143,13 143,5 137,0 145,0 139,0 139,7 142,1 149,0 159,0" fill="none" stroke="rgb(140,86,75)" stroke-width="1" opacity="0.7"/><polyline points="400,365 400,366 398,347 390,337 384,332 387,322 378,318 377,311 370,302 366,287 378,293 400,276 400,280 400,273 391,272 396,262 389,261 392,252 392,237 392,242 391,226 391,218 378,217 393,200 388,183 389,184 394,186 387,193 395,188 395,177" fill="none" stroke="rgb(196,156,148)" stroke-width="1" opacity="0.7"/><polyline points="75,400 82,391 78,392 75,392 81,394 94,400 101,389 108,388 98,386 98,381 98,369 91,358 90,357 82,369 76,354 64,343 48,332 55,322 39,310 38,307 49,300 47,300 52,321 42,327 41,324 30,318 34,306 30,292 42,281 46,289 56,296 71,297" fill="none" stroke="rgb(227,119,194)" stroke-width="1" opacity="0.7"/><polyline points="69,400 62,399 59,384 54,384 50,374 44,385 42,384 30,397 37,388 47,378 38,376 24,374 21,365 23,354 29,362 26,355 33,355 38,346 51,348 51,336 39,335 46,331 38,341 45,342 50,348 44,348 49,353 49,331 47,332 54,324 59,309 61,309 54,312 56,307" fill="none" stroke="rgb(247,182,210)" stroke-width="1" opacity="0.7"/><polyline points="194,185 176,181 161,183 159,188 152,183 149,181 135,185 132,191" fill="none" stroke="rgb(127,127,127)" stroke-width="1" opacity="0.7"/><polyline points="194,185 199,180 197,178 203,187 205,184 206,195 203,193 202,185" fill="none" stroke="rgb(199,199,199)" stroke-width="1" opacity="0.7"/><polyline points="205,187 211,182 214,182 203,188 201,189 200,197 191,200 195,200" fill="none" stroke="rgb(188,189,34)" stroke-width="1" opacity="0.7"/><polyline points="205,187 204,189 196,181 183,177 188,194 192,174 182,164 190,172" fill="none" stroke="rgb(219,219,141)" stroke-width="1" opacity="0.7"/><polyline points="355,0 359,0 360,0 367,4 379,9 382,11 373,0 370,5 364,6 364,13 370,11 381,5 393,9 399,19 395,11 392,13 396,22 390,2 396,13 400,18 393,20 400,28 394,30" fill="none" stroke="rgb(23,190,207)" stroke-width="1" opacity="0.7"/><polyline points="311,0 314,0 320,0 313,0 328,0 326,1 326,0 328,5 331,3 325,5 324,0 321,25 333,24 334,38 342,45 340,51 340,52 340,34 344,43 356,32 365,21 364,30 371,36 377,41 377,52 382,60 360,68 359,57 356,44 343,44" fill="none" stroke="rgb(158,218,229)" stroke-width="1" opacity="0.7"/><polyline points="400,98 400,108 387,105 389,112 395,115 387,111 395,106 388,96 383,96 380,87 381,91 376,98 374,94 364,109 360,100 352,99 364,85 360,85 357,83 363,77 369,75 369,69 373,67 370,67 367,54 368,47 354,51 351,56 354,65 343,66 342,66 349,64 340,52 350,51 344,46 329,48 320,41 307,34 315,41 297,31 292,17 304,17 297,8 301,20 293,16 276,13 278,5 283,1" fill="none" stroke="rgb(31,119,180)" stroke-width="1" opacity="0.7"/><polyline points="180,400 180,392 186,396 183,382 175,389 171,389 158,395 151,391 165,397 158,396 159,400 159,400 167,376 160,378 174,382 181,369 185,347 190,338 191,331 207,342 190,338 203,333 206,337 207,325 209,320 206,329 208,336 198,336 203,336 204,334 203,339 204,347" fill="none" stroke="rgb(175,199,232)" stroke-width="1" opacity="0.7"/><polyline points="400,165 400,158 385,163 391,162 385,160 376,154 383,164 380,148 386,142 387,129 385,124 360,124 360,123 357,110 361,112 346,92 346,104 348,110 357,103 357,98 358,102 362,98 361,114 375,107 377,121 393,128 398,119 394,129 394,117 400,108 400,112 400,110 400,111 400,98 398,100 400,115 398,124 391,125 398,119 400,123 386,129 385,119 379,117" fill="none" stroke="rgb(255,127,14)" stroke-width="1" opacity="0.7"/><polyline points="393,0 376,2 373,3 380,0 382,0 390,0 394,0 394,0 394,2 400,0 400,1 398,0 394,3 387,10 392,10 387,6 397,0 400,0 400,0 400,0 400,0 398,0 400,0 400,6 400,10" fill="none" stroke="rgb(255,187,120)" stroke-width="1" opacity="0.7"/><polyline points="0,14 0,15 0,7 13,3 24,2 20,0 23,0 16,0 16,15 14,26 21,27 20,25 14,24 21,20 27,18 22,23 15,12 20,30 18,12 31,14 40,13 29,0 37,1 40,3 27,11 23,18 5,11 4,0 7,0 1,7 11,5 13,0 16,0" fill="none" stroke="rgb(44,160,44)" stroke-width="1" opacity="0.7"/><polyline points="53,0 52,1 59,11 62,0 44,3 47,0 54,0 49,0 52,18 55,12 66,0 69,0 73,9 69,2 67,0 75,2 60,0 75,0 84,0 81,3 84,0 95,0 85,0" fill="none" stroke="rgb(152,223,138)" stroke-width="1" opacity="0.7"/><polyline points="121,185 119,188 119,191 102,191 112,194 118,206 113,208" fill="none" stroke="rgb(214,39,40)" stroke-width="1" opacity="0.7"/><polyline points="121,185 131,174 145,174 147,153 133,149 134,160 122,155" fill="none" stroke="rgb(255,152,150)" stroke-width="1" opacity="0.7"/><polyline points="206,187 204,188 202,196 203,190 192,199 188,206 200,212 196,200" fill="none" stroke="rgb(148,103,189)" stroke-width="1" opacity="0.7"/><polyline points="206,187 201,178 193,177 192,183 201,173 195,181 186,183 192,190" fill="none" stroke="rgb(197,176,213)" stroke-width="1" opacity="0.7"/><polyline points="203,206 196,216 195,202 192,207 212,207 206,208 198,205" fill="none" stroke="rgb(140,86,75)" stroke-width="1" opacity="0.7"/><polyline points="203,206 208,189 223,194 224,192 223,178 222,171 218,177 221,179" fill="none" stroke="rgb(196,156,148)" stroke-width="1" opacity="0.7"/><polyline points="184,175 168,179 164,171 178,175 181,160 185,165 187,174 196,169" fill="none" stroke="rgb(227,119,194)" stroke-width="1" opacity="0.7"/><polyline points="184,175 186,166 182,160 182,160 180,164 183,160 180,171 173,152" fill="none" stroke="rgb(247,182,210)" stroke-width="1" opacity="0.7"/><polyline points="400,87 392,77 396,71 394,68 397,59 393,59 400,52 390,48 395,45 378,57 374,51 362,50 373,60 377,48 378,51 363,51 361,46 361,53 341,37 330,38 325,48 319,42 310,37 309,41 300,41 285,48 287,47 296,53 288,59 283,64 283,51 272,55 276,52 281,36 272,28 274,36" fill="none" stroke="rgb(127,127,127)" stroke-width="1" opacity="0.7"/><polyline points="0,390 0,397 0,400 0,396 9,384 19,378 19,376 16,369 23,368 19,380 31,374 34,369 36,372 32,370 23,377 30,368 28,372 25,359 21,343 25,335 19,331 26,338 29,329 23,320 31,314 12,311 11,316 0,309 0,307 7,306 4,295 10,293 12,282 1,279 5,277 0,277 0,266 14,264 8,236 2,236 9,240" fill="none" stroke="rgb(199,199,199)" stroke-width="1" opacity="0.7"/><polyline points="111,400 103,391 102,388 106,384 103,371 120,394 122,384 129,383 119,376 121,370 119,371 116,374 96,376 100,373 102,363 111,371 113,366 125,382 130,376 119,369 119,381 126,396 130,398 134,395 131,400 114,400 108,400 102,397 104,400 93,400 85,400 92,387 90,370 101,381 114,392 103,389 101,389 99,389 99,395 114,400" fill="none" stroke="rgb(188,189,34)" stroke-width="1" opacity="0.7"/><polyline points="73,0 81,7 84,0 75,3 63,0 57,5 63,11 60,9 58,18 65,16 55,4 52,4 60,0 56,0 57,0 66,0 70,0 88,5 90,3 86,11 92,23 102,19 96,14 96,16 91,33 93,33 95,21 82,24 80,21 76,26 82,28 69,35 63,32 64,30 44,29 33,26 33,14 30,17" fill="none" stroke="rgb(219,219,141)" stroke-width="1" opacity="0.7"/><polyline points="215,37 231,34 235,30 234,18 227,15 234,11 236,18 241,15" fill="none" stroke="rgb(23,190,207)" stroke-width="1" opacity="0.7"/><polyline points="215,37 214,34 217,29 204,33 196,31 208,25 215,28 219,12" fill="none" stroke="rgb(158,218,229)" stroke-width="1" opacity="0.7"/><polyline points="122,203 133,210 141,225 140,208 120,209 118,210 119,198 115,186" fill="none" stroke="rgb(31,119,180)" stroke-width="1" opacity="0.7"/><polyline points="122,203 117,205 112,207 114,190 116,182 97,184 96,170 90,159" fill="none" stroke="rgb(175,199,232)" stroke-width="1" opacity="0.7"/><polyline points="119,154 112,146 116,160 117,156 108,146 110,141 109,147 105,138" fill="none" stroke="rgb(255,127,14)" stroke-width="1" opacity="0.7"/><polyline points="119,154 114,156 124,161 116,161 123,154 116,160 123,155 121,141" fill="none" stroke="rgb(255,187,120)" stroke-width="1" opacity="0.7"/><polyline points="207,209 204,212 221,208 237,202 240,200 234,182 250,175 261,165" fill="none" stroke="rgb(44,160,44)" stroke-width="1" opacity="0.7"/><polyline points="207,209 200,213 207,212 199,227 209,229 220,230 212,218 209,221" fill="none" stroke="rgb(152,223,138)" stroke-width="1" opacity="0.7"/><polyline points="70,400 71,400 55,400 45,400 70,400 60,384 50,399 35,399 55,392 55,400 58,392 52,391 59,380 70,397 68,400 61,383 56,378 59,390 71,399 59,392 64,389 74,386 80,373 72,363 73,365" fill="none" stroke="rgb(214,39,40)" stroke-width="1" opacity="0.7"/><polyline points="0,15 0,3 6,9 5,21 0,14 5,20 11,30 12,27 31,21 44,20 49,13 51,29 57,29 72,43 76,39 84,39 102,50 105,40 104,32 106,32 94,39 112,34 111,36" fill="none" stroke="rgb(255,152,150)" stroke-width="1" opacity="0.7"/><polyline points="364,0 375,0 380,1 387,9 389,16 382,6 374,8 373,7 376,3 381,13 397,20 400,28 394,27 392,30 386,31 396,45 386,33 385,27 390,38 392,48 390,44 380,47 389,57 382,44" fill="none" stroke="rgb(148,103,189)" stroke-width="1" opacity="0.7"/><polyline points="303,0 307,0 309,0 312,0 304,8 308,0 304,0 296,0 298,0 292,0 298,1 302,7 294,1 300,9 287,5 293,3 287,2 272,0 270,11 276,0 283,11 277,12 278,3 279,4 286,12 290,5 290,0 289,10 307,13 310,9 311,6 301,10 302,9 309,3 296,16" fill="none" stroke="rgb(197,176,213)" stroke-width="1" opacity="0.7"/><polyline points="0,56 0,45 0,46 5,51 12,42 7,56 0,48 14,44 15,35 23,37 29,50 34,36 20,32 32,52 46,55 54,55 62,55 71,53 66,57 69,55 63,49 73,65 70,72 73,71 80,72 68,61 54,63 40,48 16,43 26,51 21,51 30,41" fill="none" stroke="rgb(140,86,75)" stroke-width="1" opacity="0.7"/><polyline points="0,271 0,264 0,243 2,238 8,245 24,247 29,240 30,241 24,237 26,252 28,252 26,247 50,245 57,229 59,215 56,205 58,215 52,207 48,200 45,203 21,201 0,190 7,191 1,203 0,204 2,204 7,195 6,215 0,214 3,223 1,205 9,193 4,196 3,203 6,193" fill="none" stroke="rgb(196,156,148)" stroke-width="1" opacity="0.7"/><polyline points="15,3 35,0 27,1 43,0 44,0 61,3 51,0" fill="none" stroke="rgb(227,119,194)" stroke-width="1" opacity="0.7"/><polyline points="15,3 18,0 9,0 15,0 5,0 2,10 9,0" fill="none" stroke="rgb(247,182,210)" stroke-width="1" opacity="0.7"/><polyline points="194,197 199,205 198,213 201,209 189,207 201,217 195,208" fill="none" stroke="rgb(127,127,127)" stroke-width="1" opacity="0.7"/><polyline points="194,197 220,199 201,213 199,218 204,217 203,209 189,201" fill="none" stroke="rgb(199,199,199)" stroke-width="1" opacity="0.7"/><polyline points="189,180 194,176 190,173 206,166 217,155 225,162 230,146 238,140" fill="none" stroke="rgb(188,189,34)" stroke-width="1" opacity="0.7"/><polyline points="189,180 200,188 198,199 196,199 200,195 199,193 198,199 194,187" fill="none" stroke="rgb(219,219,141)" stroke-width="1" opacity="0.7"/><polyline points="227,195 221,186 222,168 222,167 216,169 212,166 220,153" fill="none" stroke="rgb(23,190,207)" stroke-width="1" opacity="0.7"/><polyline points="227,195 232,198 218,195 204,199 205,188 209,191 212,191" fill="none" stroke="rgb(158,218,229)" stroke-width="1" opacity="0.7"/><polyline points="189,164 185,161 179,158 186,158 187,171 191,168 198,164 207,172" fill="none" stroke="rgb(31,119,180)" stroke-width="1" opacity="0.7"/><polyline points="189,164 175,172 195,174 203,176 201,173 205,165 212,167 208,157" fill="none" stroke="rgb(175,199,232)" stroke-width="1" opacity="0.7"/><polyline points="175,159 178,162 181,163 174,165 183,157 178,163 185,170 186,163" fill="none" stroke="rgb(255,127,14)" stroke-width="1" opacity="0.7"/><polyline points="175,159 176,161 182,165 175,167 184,158 179,153 186,155" fill="none" stroke="rgb(255,187,120)" stroke-width="1" opacity="0.7"/><polyline points="400,187 394,188 400,195 399,182 399,172 387,181 378,189 388,179 383,179 371,177 372,181 380,184 393,178 385,185 381,189 379,188 377,180 372,166 373,162 375,170 373,172 373,165 375,160 375,153 379,149 364,147 358,140 355,134 353,119 353,124 352,133 344,145 353,149" fill="none" stroke="rgb(44,160,44)" stroke-width="1" opacity="0.7"/><polyline points="10,400 9,394 12,396 10,395 0,383 8,391 10,394 0,389 0,393 0,393 6,395 13,387 15,384 14,378 8,379 5,384 0,388 0,384 0,372 0,373 2,367 1,365 4,370 6,369 4,374 24,351 16,337 14,335 11,331 15,346 13,334 1,333 14,316" fill="none" stroke="rgb(152,223,138)" stroke-width="1" opacity="0.7"/><polyline points="163,1 172,11 164,15 166,4 158,0 160,8 160,10 165,12" fill="none" stroke="rgb(214,39,40)" stroke-width="1" opacity="0.7"/><polyline points="163,1 167,0 162,0 176,0 184,0 177,0 180,0 180,0" fill="none" stroke="rgb(255,152,150)" stroke-width="1" opacity="0.7"/><polyline points="0,356 0,360 4,358 5,357 0,353 3,351 8,351 12,350 10,341 13,329 1,334 4,327 19,320 8,314 2,314 0,300 14,301 15,293 21,307 21,312 44,300 42,298 45,293 38,301" fill="none" stroke="rgb(148,103,189)" stroke-width="1" opacity="0.7"/><polyline points="0,74 2,85 9,79 12,75 17,67 5,75 1,79 13,67 10,55 4,47 7,56 3,53 18,39 13,50 8,57 14,50 30,45 36,38 47,45 57,55 60,62 63,47 70,34 77,22 79,30 76,22 71,21 72,13 78,7 76,0 77,0 68,14" fill="none" stroke="rgb(197,176,213)" stroke-width="1" opacity="0.7"/><polyline points="76,400 69,398 74,395 89,385 81,382 68,395 55,393 67,397 62,380 75,389 71,396 77,400 95,392 72,392 75,393 84,393 93,377 99,376 85,380 73,377 78,369 74,384 79,385 77,379 89,365 85,371 77,382 78,382 91,393 81,397 80,392 82,392" fill="none" stroke="rgb(140,86,75)" stroke-width="1" opacity="0.7"/><polyline points="191,387 182,389 174,395 166,400 171,400 172,399 162,393 158,380 163,380 162,366 168,366 163,384 176,376 180,372 172,366 181,363 178,365 172,359 169,351 170,350 175,356 166,350 153,342 156,344" fill="none" stroke="rgb(196,156,148)" stroke-width="1" opacity="0.7"/><polyline points="191,387 201,366 202,352 203,363 196,363 206,380 211,381 206,372 192,373 186,370 196,386 190,386 181,384 189,367 177,361 181,357 177,369 165,369 168,377 171,374 170,370 168,361 171,369 156,369 163,358 152,357 146,371 165,368 146,373 139,362 143,364 139,357" fill="none" stroke="rgb(227,119,194)" stroke-width="1" opacity="0.7"/><polyline points="0,5 16,0 9,0 18,0 21,0 23,0 26,0 0,13 0,6 0,6 6,2 0,0 8,0 1,0 6,0 8,6 6,5 0,0 0,2 0,1 0,12 12,0 2,4 0,0 0,10 0,6 0,0 0,0 14,0" fill="none" stroke="rgb(247,182,210)" stroke-width="1" opacity="0.7"/><polyline points="396,27 395,35 391,31 400,38 385,38 391,46 400,49 400,57" fill="none" stroke="rgb(127,127,127)" stroke-width="1" opacity="0.7"/><polyline points="396,27 400,18 400,1 400,11 399,7 400,11 400,22 400,21" fill="none" stroke="rgb(199,199,199)" stroke-width="1" opacity="0.7"/><polyline points="223,1 226,14 216,13 203,23 199,24 194,33 196,38" fill="none" stroke="rgb(188,189,34)" stroke-width="1" opacity="0.7"/><polyline points="223,1 225,0 228,0 228,0 227,12 216,5 233,6 229,3" fill="none" stroke="rgb(219,219,141)" stroke-width="1" opacity="0.7"/><polyline points="222,5 209,0 208,0 214,0 211,0 204,5 232,12 238,1" fill="none" stroke="rgb(23,190,207)" stroke-width="1" opacity="0.7"/><polyline points="222,5 217,1 222,0 222,0 220,0 216,6 207,0 197,4" fill="none" stroke="rgb(158,218,229)" stroke-width="1" opacity="0.7"/><polyline points="100,165 100,174 92,169 99,175 94,180 94,191 78,194 82,202" fill="none" stroke="rgb(31,119,180)" stroke-width="1" opacity="0.7"/><polyline points="100,165 89,164 86,167 84,156 65,143 68,147 77,151 77,141" fill="none" stroke="rgb(175,199,232)" stroke-width="1" opacity="0.7"/><polyline points="74,158 83,164 82,177 80,170 98,159 114,154 120,155 116,159" fill="none" stroke="rgb(255,127,14)" stroke-width="1" opacity="0.7"/><polyline points="74,159 73,159 76,165 79,166 80,161 82,149 78,143 88,141" fill="none" stroke="rgb(255,187,120)" stroke-width="1" opacity="0.7"/><polyline points="110,138 120,150 137,126 121,128 118,122 116,113 111,113 107,114" fill="none" stroke="rgb(44,160,44)" stroke-width="1" opacity="0.7"/><polyline points="110,138 113,142 104,126 112,123 96,108 89,98 84,89 90,75" fill="none" stroke="rgb(152,223,138)" stroke-width="1" opacity="0.7"/><polyline points="115,143 118,136 123,153 118,141 103,143 97,149 103,145 114,149" fill="none" stroke="rgb(214,39,40)" stroke-width="1" opacity="0.7"/><polyline points="115,143 118,144 131,134 129,139 127,155 121,169 124,172 127,176" fill="none" stroke="rgb(255,152,150)" stroke-width="1" opacity="0.7"/><polyline points="270,157 267,158 280,166 275,186 264,202 275,210 276,203 281,197" fill="none" stroke="rgb(148,103,189)" stroke-width="1" opacity="0.7"/><polyline points="270,157 269,159 274,156 270,137 254,141 264,142 266,136 270,141" fill="none" stroke="rgb(197,176,213)" stroke-width="1" opacity="0.7"/><polyline points="200,222 205,210 213,220 208,224 222,218 215,230 225,235 227,223" fill="none" stroke="rgb(140,86,75)" stroke-width="1" opacity="0.7"/><polyline points="200,222 192,222 208,211 210,215 221,225 229,217 228,201 221,196" fill="none" stroke="rgb(196,156,148)" stroke-width="1" opacity="0.7"/><polyline points="51,0 40,0 35,0 40,7 41,0 42,0 41,0 47,0" fill="none" stroke="rgb(227,119,194)" stroke-width="1" opacity="0.7"/><polyline points="51,0 66,0 68,6 74,0 69,0 74,0 75,0 83,6" fill="none" stroke="rgb(247,182,210)" stroke-width="1" opacity="0.7"/><polyline points="0,14 0,0 0,6 1,20 0,27 16,33 0,30 2,50" fill="none" stroke="rgb(127,127,127)" stroke-width="1" opacity="0.7"/><polyline points="0,14 3,5 7,4 5,1 3,0 0,0 0,6 0,12" fill="none" stroke="rgb(199,199,199)" stroke-width="1" opacity="0.7"/><polyline points="204,210 206,214 213,215 214,205 209,206 219,214 221,215 219,207" fill="none" stroke="rgb(188,189,34)" stroke-width="1" opacity="0.7"/><polyline points="204,210 220,196 220,188 216,191 219,200 226,198 227,204 223,203 219,206" fill="none" stroke="rgb(219,219,141)" stroke-width="1" opacity="0.7"/><polyline points="197,197 196,194 201,191 190,196 193,192 190,177 190,168 195,168 192,166 186,174" fill="none" stroke="rgb(23,190,207)" stroke-width="1" opacity="0.7"/><polyline points="197,197 210,207 208,223 210,213 192,210 190,215 185,216 190,212" fill="none" stroke="rgb(158,218,229)" stroke-width="1" opacity="0.7"/><polyline points="227,166 218,158 221,164 237,170 243,167 255,172 253,162 231,163 242,160" fill="none" stroke="rgb(31,119,180)" stroke-width="1" opacity="0.7"/><polyline points="227,166 228,169 235,176 220,189 220,193 216,200 216,194 215,200 221,197" fill="none" stroke="rgb(175,199,232)" stroke-width="1" opacity="0.7"/><polyline points="202,193 202,197 198,201 199,210 194,193 193,195 204,191 214,189 208,179" fill="none" stroke="rgb(255,127,14)" stroke-width="1" opacity="0.7"/><polyline points="202,193 202,194 203,210 198,216 205,221 214,225 231,214 225,205" fill="none" stroke="rgb(255,187,120)" stroke-width="1" opacity="0.7"/><polyline points="201,141 208,149 199,143 193,138 198,131 192,124 194,121 211,130" fill="none" stroke="rgb(44,160,44)" stroke-width="1" opacity="0.7"/><polyline points="201,141 198,137 189,140 180,146 188,152 197,148 189,148 178,137" fill="none" stroke="rgb(152,223,138)" stroke-width="1" opacity="0.7"/><polyline points="400,168 395,186 400,185 397,170 395,176 399,177 392,177" fill="none" stroke="rgb(214,39,40)" stroke-width="1" opacity="0.7"/><polyline points="400,168 400,162 391,159 387,163 394,155 386,157 394,149" fill="none" stroke="rgb(255,152,150)" stroke-width="1" opacity="0.7"/><polyline points="239,144 234,138 238,131 220,121 224,119 236,127 233,130" fill="none" stroke="rgb(148,103,189)" stroke-width="1" opacity="0.7"/><polyline points="239,144 244,142 241,128 234,142 230,162 230,160 233,159 220,154" fill="none" stroke="rgb(197,176,213)" stroke-width="1" opacity="0.7"/><polyline points="183,162 177,176 183,167 170,176 174,164 161,147 158,154 172,152" fill="none" stroke="rgb(140,86,75)" stroke-width="1" opacity="0.7"/><polyline points="183,162 188,153 184,141 188,132 193,128 184,112 165,109 154,108" fill="none" stroke="rgb(196,156,148)" stroke-width="1" opacity="0.7"/><polyline points="209,169 212,162 210,156 199,151 209,144 215,144 223,150 237,136" fill="none" stroke="rgb(227,119,194)" stroke-width="1" opacity="0.7"/><polyline points="209,169 209,160 207,162 210,163 216,156 223,165 224,174 218,178" fill="none" stroke="rgb(247,182,210)" stroke-width="1" opacity="0.7"/><polyline points="201,170 197,170 210,174 210,168 208,158 206,156 191,159 192,166" fill="none" stroke="rgb(127,127,127)" stroke-width="1" opacity="0.7"/><polyline points="201,170 192,174 199,168 195,178 194,167 190,173 191,169 197,170 185,171" fill="none" stroke="rgb(199,199,199)" stroke-width="1" opacity="0.7"/><polyline points="202,189 203,201 201,218 189,210 200,191 194,204 181,205 211,204" fill="none" stroke="rgb(188,189,34)" stroke-width="1" opacity="0.7"/><polyline points="202,189 210,185 193,186 189,189 192,181 197,174 211,186 218,196 222,188 221,192" fill="none" stroke="rgb(219,219,141)" stroke-width="1" opacity="0.7"/><polyline points="286,0 277,0 284,0 292,0 295,0 292,3 307,4 297,0 305,0 310,5 298,0 289,11 285,15 281,0 295,0 291,1 289,2 290,0 296,0 313,4 312,0 314,0 304,17 318,8 318,0 336,0" fill="none" stroke="rgb(23,190,207)" stroke-width="1" opacity="0.7"/><polyline points="184,0 186,0 180,0 166,18 180,27 194,30 191,40 193,27" fill="none" stroke="rgb(158,218,229)" stroke-width="1" opacity="0.7"/><polyline points="184,0 187,0 187,0 173,3 182,5 179,8 169,12 168,11" fill="none" stroke="rgb(31,119,180)" stroke-width="1" opacity="0.7"/><polyline points="157,0 149,0 145,5 141,13 141,8 152,9 149,11 142,5" fill="none" stroke="rgb(175,199,232)" stroke-width="1" opacity="0.7"/><polyline points="157,0 143,0 153,3 147,0 145,2 131,0 140,16 143,16" fill="none" stroke="rgb(255,127,14)" stroke-width="1" opacity="0.7"/><polyline points="205,0 201,0 199,15 198,6 208,4 210,10 213,0 210,0 202,3 202,0 200,0 209,0 213,0 222,0 231,0 229,0 237,0 235,0 225,0 243,0 242,14 242,0 241,0 247,8 238,15" fill="none" stroke="rgb(255,187,120)" stroke-width="1" opacity="0.7"/><polyline points="0,277 5,283 15,287 19,286 9,291 5,289 23,277 16,269 14,273 16,278 14,276 22,287 19,283 11,283 7,286 10,292 13,279 10,267 11,263 29,255 33,270 34,266 41,267 52,269 49,262" fill="none" stroke="rgb(44,160,44)" stroke-width="1" opacity="0.7"/><polyline points="0,217 0,214 0,214 11,216 18,210 3,210 0,207 5,210 14,201 26,200 14,188 24,186 22,185 22,181 21,174 29,162 34,166 41,164 53,158 55,154 41,135 34,135 22,130 24,141" fill="none" stroke="rgb(152,223,138)" stroke-width="1" opacity="0.7"/><polyline points="187,400 171,400 179,400 168,392 167,393 190,368 196,374 201,372 197,368 191,369 188,375 196,367 187,354 175,350 181,353 171,344 190,347 194,357 186,356 180,363 184,368 168,366 163,365" fill="none" stroke="rgb(214,39,40)" stroke-width="1" opacity="0.7"/><polyline points="400,368 400,357 398,343 393,344 394,334 388,329 393,316 394,315 399,313 395,312 388,299 381,294 360,305 359,296 368,309 369,311 365,308 366,303 367,291 361,284 361,271 348,275 341,264" fill="none" stroke="rgb(255,152,150)" stroke-width="1" opacity="0.7"/><polyline points="360,0 362,0 350,17 353,9 360,14 346,1 340,0 339,0 346,0 341,0 343,8 338,0 356,6 359,3 363,0 350,3 350,0 345,0 348,0 344,0 330,10 337,13 334,20" fill="none" stroke="rgb(148,103,189)" stroke-width="1" opacity="0.7"/><polyline points="400,72 400,69 400,56 400,55 388,46 386,52 395,48 400,46 395,47 395,42 388,36 400,37 398,26 400,44 400,55 373,59 372,61 360,55 365,55 365,73 369,81 364,73 364,82" fill="none" stroke="rgb(197,176,213)" stroke-width="1" opacity="0.7"/><polyline points="23,400 20,400 21,400 17,386 27,390 34,378 33,382 27,392 25,400 26,381 22,375 9,362 18,357 22,353 26,361 36,354 52,353 54,346 54,338 57,331 47,336" fill="none" stroke="rgb(140,86,75)" stroke-width="1" opacity="0.7"/><polyline points="21,0 19,4 14,6 13,11 19,11 17,18 24,20 22,27 22,28 25,26 38,29 44,41 37,38 46,39 41,34 43,37 46,26 48,22 43,13 33,7 33,0" fill="none" stroke="rgb(196,156,148)" stroke-width="1" opacity="0.7"/><polyline points="61,287 71,279 75,279 82,269 87,266 77,259 81,255 88,245" fill="none" stroke="rgb(227,119,194)" stroke-width="1" opacity="0.7"/><polyline points="61,287 62,291 50,297 51,298 66,297 78,300 79,303 80,302" fill="none" stroke="rgb(247,182,210)" stroke-width="1" opacity="0.7"/><polyline points="49,20 52,7 45,8 44,19 45,16 59,11 51,2 52,0" fill="none" stroke="rgb(127,127,127)" stroke-width="1" opacity="0.7"/><polyline points="49,20 60,2 54,3 58,23 67,16 63,17 67,0 75,6" fill="none" stroke="rgb(199,199,199)" stroke-width="1" opacity="0.7"/><polyline points="349,51 355,45 343,47 333,39 340,43 332,39 330,53" fill="none" stroke="rgb(188,189,34)" stroke-width="1" opacity="0.7"/><polyline points="349,51 341,51 349,48 333,60 334,50 331,55 326,61" fill="none" stroke="rgb(219,219,141)" stroke-width="1" opacity="0.7"/><polyline points="190,42 193,28 186,19 192,22 189,27 177,20 167,26 153,14" fill="none" stroke="rgb(23,190,207)" stroke-width="1" opacity="0.7"/><polyline points="190,42 190,47 192,51 172,39 183,42 180,40 174,43 165,46" fill="none" stroke="rgb(158,218,229)" stroke-width="1" opacity="0.7"/><polyline points="75,0 82,4 78,6 74,24 66,16 77,8 84,13 94,17 88,18 90,15 87,16 95,3 91,0 90,0 103,0 106,0 124,0 120,7 116,0 120,1" fill="none" stroke="rgb(31,119,180)" stroke-width="1" opacity="0.7"/><polyline points="165,126 166,134 165,127 152,135 157,136 156,139 142,152 145,160" fill="none" stroke="rgb(175,199,232)" stroke-width="1" opacity="0.7"/><polyline points="165,126 172,131 164,123 145,122 142,123 148,116 139,110 136,106" fill="none" stroke="rgb(255,127,14)" stroke-width="1" opacity="0.7"/><polyline points="99,0 88,4 83,10 81,8 78,2 83,2 98,0" fill="none" stroke="rgb(255,187,120)" stroke-width="1" opacity="0.7"/><polyline points="99,0 90,3 97,0 87,0 83,0 98,10 86,5" fill="none" stroke="rgb(44,160,44)" stroke-width="1" opacity="0.7"/><polyline points="209,135 207,138 211,135 219,140 215,145 204,151 209,155 219,167 234,175 232,165 219,155" fill="none" stroke="rgb(152,223,138)" stroke-width="1" opacity="0.7"/><polyline points="209,135 196,135 187,131 189,125 186,131 171,132 169,129 163,144" fill="none" stroke="rgb(214,39,40)" stroke-width="1" opacity="0.7"/><polyline points="218,200 217,205 221,207 222,200 228,183 227,184 226,179 237,178 227,172 225,170 236,179 233,176 231,173 237,169 243,173 246,179 238,180 250,190 238,168" fill="none" stroke="rgb(255,152,150)" stroke-width="1" opacity="0.7"/><polyline points="217,200 202,198 209,209 196,202 199,211 205,218 201,214 205,207 213,194 201,185 205,171 220,182 216,169 230,157" fill="none" stroke="rgb(148,103,189)" stroke-width="1" opacity="0.7"/><polyline points="400,67 400,69 400,86 399,85 400,89 400,87 400,93 395,109" fill="none" stroke="rgb(197,176,213)" stroke-width="1" opacity="0.7"/><polyline points="400,67 400,60 400,49 400,37 385,37 378,25 381,18 375,19" fill="none" stroke="rgb(140,86,75)" stroke-width="1" opacity="0.7"/><polyline points="400,18 400,18 390,15 371,17 369,7 366,21 359,33 349,28" fill="none" stroke="rgb(196,156,148)" stroke-width="1" opacity="0.7"/><polyline points="400,18 400,25 400,25 400,23 395,35 400,33 400,45 395,41" fill="none" stroke="rgb(227,119,194)" stroke-width="1" opacity="0.7"/><polyline points="225,2 231,0 249,14 259,13 252,18 253,16 251,8" fill="none" stroke="rgb(247,182,210)" stroke-width="1" opacity="0.7"/><polyline points="251,1 246,0 242,0 238,10 232,13 222,17 227,15 229,7" fill="none" stroke="rgb(127,127,127)" stroke-width="1" opacity="0.7"/><polyline points="204,4 206,4 190,0 188,0 189,6 194,2 199,6 187,21" fill="none" stroke="rgb(199,199,199)" stroke-width="1" opacity="0.7"/><polyline points="72,206 72,207 72,195 69,190 54,180 61,167 70,175 91,176" fill="none" stroke="rgb(188,189,34)" stroke-width="1" opacity="0.7"/><polyline points="80,138 76,127 61,117 61,114 58,129 55,123 42,122 59,121" fill="none" stroke="rgb(219,219,141)" stroke-width="1" opacity="0.7"/><polyline points="111,157 103,150 94,148 86,136 85,136 81,116 71,122 70,125" fill="none" stroke="rgb(23,190,207)" stroke-width="1" opacity="0.7"/><polyline points="94,157 91,150 89,148 95,158 109,164 109,171 103,164 96,166" fill="none" stroke="rgb(158,218,229)" stroke-width="1" opacity="0.7"/><polyline points="109,128 105,130 98,119 89,108 95,104 88,105 106,110 110,114" fill="none" stroke="rgb(31,119,180)" stroke-width="1" opacity="0.7"/><polyline points="86,70 80,74 74,80 71,81 69,87 63,79 57,74 51,64" fill="none" stroke="rgb(175,199,232)" stroke-width="1" opacity="0.7"/><polyline points="112,149 103,142 104,147 97,144 102,131 83,126 73,120 67,131" fill="none" stroke="rgb(255,127,14)" stroke-width="1" opacity="0.7"/><polyline points="126,163 132,163 135,153 130,146 137,154 132,142 147,138 148,139" fill="none" stroke="rgb(255,187,120)" stroke-width="1" opacity="0.7"/><polyline points="285,178 286,166 298,159 289,156 291,169 285,157 283,143 290,143" fill="none" stroke="rgb(44,160,44)" stroke-width="1" opacity="0.7"/><polyline points="269,146 266,146 255,139 251,120 251,121 242,111 241,106 241,106" fill="none" stroke="rgb(152,223,138)" stroke-width="1" opacity="0.7"/><polyline points="217,218 223,221 222,223 221,221 217,216 209,214 208,210 206,207 205,202" fill="none" stroke="rgb(214,39,40)" stroke-width="1" opacity="0.7"/><polyline points="211,198 210,198 203,185 205,200 204,203 204,199 199,194 207,185 192,188 190,172 188,159 178,167 191,153 179,139 181,148" fill="none" stroke="rgb(255,152,150)" stroke-width="1" opacity="0.7"/><polyline points="56,0 51,6 35,16 37,26 32,12 26,24 30,26 18,27 17,23" fill="none" stroke="rgb(148,103,189)" stroke-width="1" opacity="0.7"/><polyline points="77,5 66,0 73,6 80,24 87,26 91,32 101,44 102,45" fill="none" stroke="rgb(197,176,213)" stroke-width="1" opacity="0.7"/><polyline points="5,46 10,54 12,39 13,38 21,26 29,28 39,14 42,12 45,19" fill="none" stroke="rgb(140,86,75)" stroke-width="1" opacity="0.7"/><polyline points="0,21 8,7 29,0 23,0 32,0 30,0 33,0 26,11 20,20" fill="none" stroke="rgb(196,156,148)" stroke-width="1" opacity="0.7"/><polyline points="229,205 214,200 208,191 211,194 210,193 207,181 216,177 221,164 217,161 223,160 232,157 244,152 244,160 253,167 260,163" fill="none" stroke="rgb(227,119,194)" stroke-width="1" opacity="0.7"/><polyline points="191,202 190,188 180,198 184,190 177,195 187,192 193,181 192,188 195,187 203,186 197,174 197,176 199,165 201,175 201,185 194,181 197,185 205,173 204,173" fill="none" stroke="rgb(247,182,210)" stroke-width="1" opacity="0.7"/><polyline points="377,183 392,183 393,191 400,188 400,190 400,187 400,183 400,178" fill="none" stroke="rgb(127,127,127)" stroke-width="1" opacity="0.7"/><polyline points="397,152 390,150 396,144 390,152 385,155 388,136 396,125 398,123" fill="none" stroke="rgb(199,199,199)" stroke-width="1" opacity="0.7"/><polyline points="225,131 232,121 222,115 217,113 220,116 228,111 232,104 231,97" fill="none" stroke="rgb(188,189,34)" stroke-width="1" opacity="0.7"/><polyline points="400,6 400,21 389,11 383,10 375,0 382,0 390,1 390,0" fill="none" stroke="rgb(219,219,141)" stroke-width="1" opacity="0.7"/><polyline points="201,182 199,174 187,168 192,181 184,183 186,185 170,189 167,174 169,172 180,173 178,164 176,166 177,164 181,165 196,172 187,164 189,162 183,170" fill="none" stroke="rgb(23,190,207)" stroke-width="1" opacity="0.7"/><polyline points="228,201 229,205 226,193 213,190 215,197 210,205 227,212 222,209 217,209 219,206 213,204" fill="none" stroke="rgb(158,218,229)" stroke-width="1" opacity="0.7"/><polyline points="239,161 233,158 246,152 255,153 266,166 252,172 253,179 254,163" fill="none" stroke="rgb(31,119,180)" stroke-width="1" opacity="0.7"/><polyline points="200,203 193,202 181,202 167,210 164,215 158,219 157,221 153,233" fill="none" stroke="rgb(175,199,232)" stroke-width="1" opacity="0.7"/><polyline points="200,162 200,155 202,159 208,159 224,159 225,159 215,161 220,155 217,165 223,177 216,173 230,160 231,158 229,155" fill="none" stroke="rgb(255,127,14)" stroke-width="1" opacity="0.7"/><polyline points="207,181 205,183 193,195 204,199 209,197 207,198 210,198 215,200 217,197 217,182 220,170 217,164 230,156 231,156 229,148 242,162 232,177 231,172" fill="none" stroke="rgb(255,187,120)" stroke-width="1" opacity="0.7"/><polyline points="243,127 235,129 226,131 218,139 229,142 225,156 231,148 253,134" fill="none" stroke="rgb(44,160,44)" stroke-width="1" opacity="0.7"/><polyline points="158,97 167,101 173,107 181,107 182,115 179,109 187,109" fill="none" stroke="rgb(152,223,138)" stroke-width="1" opacity="0.7"/><polyline points="170,148 162,141 160,140 156,134 155,130 147,130 157,131 172,130" fill="none" stroke="rgb(214,39,40)" stroke-width="1" opacity="0.7"/><polyline points="232,152 212,146 204,144 203,145 203,137 209,137 212,133 199,136" fill="none" stroke="rgb(255,152,150)" stroke-width="1" opacity="0.7"/><polyline points="224,192 210,185 204,170 207,163 216,166 212,179 215,180 214,168 212,170 205,168 197,172 202,179 201,184 206,181 207,170 217,161 214,167 210,161" fill="none" stroke="rgb(148,103,189)" stroke-width="1" opacity="0.7"/><polyline points="0,360 3,370 13,363 3,370 15,374 29,371 26,384 40,394 39,400 42,390 32,400 19,393 26,386 24,383 34,379 44,363 33,367" fill="none" stroke="rgb(197,176,213)" stroke-width="1" opacity="0.7"/><polyline points="142,19 139,32 134,32 147,34 155,41 159,35 150,25 153,26" fill="none" stroke="rgb(140,86,75)" stroke-width="1" opacity="0.7"/><polyline points="132,1 143,0 152,0 147,0 151,1 156,0 145,0 152,3" fill="none" stroke="rgb(196,156,148)" stroke-width="1" opacity="0.7"/><polyline points="163,3 174,0 165,6 157,5 155,25 166,28 161,26 157,18" fill="none" stroke="rgb(227,119,194)" stroke-width="1" opacity="0.7"/><polyline points="193,33 200,33 200,35 216,46 213,34 221,30 211,27 208,26" fill="none" stroke="rgb(247,182,210)" stroke-width="1" opacity="0.7"/><polyline points="192,170 186,183 202,166 189,150 199,150 204,147 208,142 216,127 219,133 224,128" fill="none" stroke="rgb(127,127,127)" stroke-width="1" opacity="0.7"/><polyline points="177,171 179,162 172,172 183,173 180,173 166,174 172,175 170,178 175,179 188,168 191,155 186,151 190,151 184,149" fill="none" stroke="rgb(199,199,199)" stroke-width="1" opacity="0.7"/><polyline points="50,315 34,326 33,324 45,331 40,329 26,330 24,321 31,306" fill="none" stroke="rgb(188,189,34)" stroke-width="1" opacity="0.7"/><polyline points="217,183 218,170 229,169 230,188 217,183 213,179 204,187 203,194 200,193 199,192 202,194 191,196 188,192 198,202 186,198 185,197" fill="none" stroke="rgb(219,219,141)" stroke-width="1" opacity="0.7"/><polyline points="44,1 33,0 34,9 42,10 41,0 46,0 57,11 51,5 54,19 58,15" fill="none" stroke="rgb(23,190,207)" stroke-width="1" opacity="0.7"/><polyline points="400,116 400,107 400,107 400,123 400,114 400,109 398,122 389,127 392,117 389,114 385,124 393,125 384,120 394,128 400,124" fill="none" stroke="rgb(158,218,229)" stroke-width="1" opacity="0.7"/><polyline points="175,0 174,21 177,14 186,19 187,6 189,0 186,0 177,0 168,0 158,2 163,0 173,2 179,0 177,0 187,4" fill="none" stroke="rgb(31,119,180)" stroke-width="1" opacity="0.7"/><polyline points="400,81 391,65 398,53 400,57 390,42 400,40 391,47 393,52 386,53 399,46 392,53 398,45 389,29 389,45 377,51" fill="none" stroke="rgb(175,199,232)" stroke-width="1" opacity="0.7"/><polyline points="336,400 337,393 330,400 318,400 321,397 328,400 316,400 316,400 325,399 316,400 328,400 328,400 332,400" fill="none" stroke="rgb(255,127,14)" stroke-width="1" opacity="0.7"/><polyline points="323,61 334,57 314,65 309,54 315,56 315,47 319,37 302,31" fill="none" stroke="rgb(255,187,120)" stroke-width="1" opacity="0.7"/><polyline points="339,45 353,30 353,18 364,22 370,19 377,12 368,6 372,0 388,0 400,0 400,1" fill="none" stroke="rgb(44,160,44)" stroke-width="1" opacity="0.7"/><polyline points="201,0 209,0 203,1 196,0 179,0 182,2 190,5 197,0 199,0 190,0 206,0 203,1 194,0" fill="none" stroke="rgb(152,223,138)" stroke-width="1" opacity="0.7"/><polyline points="126,0 114,0 105,2 105,7 104,2 101,0 100,1 106,0 115,3 109,0 119,0 110,4 105,0" fill="none" stroke="rgb(214,39,40)" stroke-width="1" opacity="0.7"/><polyline points="400,370 399,373 400,363 399,354 383,357 385,360 387,356 387,358 381,352 394,345 400,337 392,342" fill="none" stroke="rgb(255,152,150)" stroke-width="1" opacity="0.7"/><polyline points="164,38 167,33 164,30 161,16 159,11 162,10 165,13 172,15 172,0" fill="none" stroke="rgb(148,103,189)" stroke-width="1" opacity="0.7"/><polyline points="110,41 101,40 107,51 110,46 114,27 98,25 107,26 89,18" fill="none" stroke="rgb(197,176,213)" stroke-width="1" opacity="0.7"/><polyline points="148,8 129,7 123,15 119,3 131,2 136,1 152,0 145,7 139,15" fill="none" stroke="rgb(140,86,75)" stroke-width="1" opacity="0.7"/><polyline points="75,8 66,11 60,16 54,5 61,4 59,0 53,5 53,0 54,0 59,3 68,6 61,7" fill="none" stroke="rgb(196,156,148)" stroke-width="1" opacity="0.7"/><polyline points="55,0 56,0 57,0 46,4 45,12 37,13 31,21 32,26 40,25 25,28 15,25 16,24" fill="none" stroke="rgb(227,119,194)" stroke-width="1" opacity="0.7"/><polyline points="78,307 83,308 75,315 81,319 85,307 81,318 82,315" fill="none" stroke="rgb(247,182,210)" stroke-width="1" opacity="0.7"/><polyline points="79,240 72,229 71,243 69,238 85,240 89,235 96,242" fill="none" stroke="rgb(127,127,127)" stroke-width="1" opacity="0.7"/><polyline points="103,4 105,3 108,4 95,0 96,3 82,1 95,0 94,0" fill="none" stroke="rgb(199,199,199)" stroke-width="1" opacity="0.7"/><polyline points="74,1 78,4 78,16 79,15 71,19 61,23 67,23 70,34 66,24 58,29 64,32 69,39" fill="none" stroke="rgb(188,189,34)" stroke-width="1" opacity="0.7"/><polyline points="243,7 248,0 239,2 249,1 249,12 243,16 242,0 255,0" fill="none" stroke="rgb(219,219,141)" stroke-width="1" opacity="0.7"/><polyline points="0,352 6,355 0,351 0,355 4,354 0,353 0,344 13,344 16,348 16,358 18,343 11,342" fill="none" stroke="rgb(23,190,207)" stroke-width="1" opacity="0.7"/><polyline points="0,400 23,398 20,393 29,393 25,394 29,387 20,378 8,376 6,381 0,387 0,389" fill="none" stroke="rgb(158,218,229)" stroke-width="1" opacity="0.7"/><polyline points="233,85 231,84 222,91 217,91 200,91 183,92 189,92 181,90" fill="none" stroke="rgb(31,119,180)" stroke-width="1" opacity="0.7"/><polyline points="208,347 204,348 198,350 204,341 202,343 189,321 191,313 187,306 195,305 197,300" fill="none" stroke="rgb(175,199,232)" stroke-width="1" opacity="0.7"/><polyline points="380,38 374,35 366,31 371,25 372,27 361,32 350,36 358,36 363,36 347,37" fill="none" stroke="rgb(255,127,14)" stroke-width="1" opacity="0.7"/><polyline points="393,119 398,121 395,125 399,133 396,137 392,132 385,125 389,129" fill="none" stroke="rgb(255,187,120)" stroke-width="1" opacity="0.7"/><polyline points="399,187 390,175 388,166 400,175 400,171 399,164 385,160 393,147" fill="none" stroke="rgb(44,160,44)" stroke-width="1" opacity="0.7"/><polyline points="177,101 176,125 192,117 201,111 194,107 192,115 185,100 192,103" fill="none" stroke="rgb(152,223,138)" stroke-width="1" opacity="0.7"/><polyline points="105,51 102,54 103,50 101,53 107,52 118,53 101,50" fill="none" stroke="rgb(214,39,40)" stroke-width="1" opacity="0.7"/><polyline points="250,103 241,105 244,106 225,96 229,105 228,118 220,118 211,118" fill="none" stroke="rgb(255,152,150)" stroke-width="1" opacity="0.7"/><polyline points="158,160 163,159 154,154 151,147 152,157 157,144 160,157 163,154" fill="none" stroke="rgb(148,103,189)" stroke-width="1" opacity="0.7"/><polyline points="144,95 133,87 127,75 113,67 115,65 123,65 114,58 110,53" fill="none" stroke="rgb(197,176,213)" stroke-width="1" opacity="0.7"/><polyline points="173,139 179,138 171,138 173,140 180,129 183,129 185,131 202,146 208,134" fill="none" stroke="rgb(140,86,75)" stroke-width="1" opacity="0.7"/><polyline points="398,105 391,123 394,116 395,110 390,111 388,121 385,113 383,115" fill="none" stroke="rgb(196,156,148)" stroke-width="1" opacity="0.7"/><polyline points="373,23 378,32 383,30 388,32 388,36 386,29 391,32 387,29 379,23 383,41 396,46" fill="none" stroke="rgb(227,119,194)" stroke-width="1" opacity="0.7"/><polyline points="356,28 355,15 353,20 370,27 367,34 366,40 359,58 341,62" fill="none" stroke="rgb(247,182,210)" stroke-width="1" opacity="0.7"/><polyline points="400,36 400,36 394,33 395,31 375,41 375,30 375,25 376,15 375,19 376,23 375,24" fill="none" stroke="rgb(127,127,127)" stroke-width="1" opacity="0.7"/><polyline points="240,0 249,11 249,9 253,0 243,0 245,2 259,0" fill="none" stroke="rgb(199,199,199)" stroke-width="1" opacity="0.7"/><polyline points="202,20 207,6 192,17 187,21 172,21 174,21 184,25 183,39" fill="none" stroke="rgb(188,189,34)" stroke-width="1" opacity="0.7"/><polyline points="106,170 101,155 104,151 82,136 80,138 85,147 72,146 66,141" fill="none" stroke="rgb(219,219,141)" stroke-width="1" opacity="0.7"/><polyline points="43,120 41,130 45,142 44,144 41,138 45,132 38,122 40,104" fill="none" stroke="rgb(23,190,207)" stroke-width="1" opacity="0.7"/><polyline points="71,107 78,113 74,110 65,123 72,126 83,116 74,114 82,101" fill="none" stroke="rgb(158,218,229)" stroke-width="1" opacity="0.7"/><polyline points="97,156 106,156 107,151 117,140 115,139 105,132 92,118 87,118" fill="none" stroke="rgb(31,119,180)" stroke-width="1" opacity="0.7"/><polyline points="112,110 116,113 108,96 108,78 107,73 104,67 100,59 92,47" fill="none" stroke="rgb(175,199,232)" stroke-width="1" opacity="0.7"/><polyline points="33,68 35,59 40,55 32,40 38,36 38,19 46,20 33,23 46,31 53,39 42,33" fill="none" stroke="rgb(255,127,14)" stroke-width="1" opacity="0.7"/><polyline points="82,132 86,118 95,114 101,104 89,106 74,98 67,101 49,85" fill="none" stroke="rgb(255,187,120)" stroke-width="1" opacity="0.7"/><polyline points="128,151 131,158 129,153 127,147 127,140 117,144 105,147 104,154" fill="none" stroke="rgb(44,160,44)" stroke-width="1" opacity="0.7"/><polyline points="281,146 271,158 276,169 278,171 270,173 274,169 280,176 278,181" fill="none" stroke="rgb(152,223,138)" stroke-width="1" opacity="0.7"/><polyline points="8,0 7,12 12,11 19,14 15,17 14,10 20,0 24,0 25,0 17,2" fill="none" stroke="rgb(214,39,40)" stroke-width="1" opacity="0.7"/><polyline points="69,361 66,345 58,317 47,313 44,288 47,286 62,279 55,283" fill="none" stroke="rgb(255,152,150)" stroke-width="1" opacity="0.7"/><polyline points="207,143 214,114 205,101 207,99 216,97 210,89 203,85 207,72" fill="none" stroke="rgb(148,103,189)" stroke-width="1" opacity="0.7"/><polyline points="177,133 174,117 176,131 169,127 179,132 194,133 196,146 197,133 199,131" fill="none" stroke="rgb(197,176,213)" stroke-width="1" opacity="0.7"/><polyline points="17,26 24,29 39,31 42,32 37,37 30,42 33,48 39,45 34,41 25,38" fill="none" stroke="rgb(140,86,75)" stroke-width="1" opacity="0.7"/><polyline points="47,20 50,13 44,1 39,7 46,0 49,5 51,6 53,0 57,0 55,4" fill="none" stroke="rgb(196,156,148)" stroke-width="1" opacity="0.7"/><polyline points="10,24 14,11 13,18 8,21 3,32 5,31 2,42 0,18 11,0 9,9" fill="none" stroke="rgb(227,119,194)" stroke-width="1" opacity="0.7"/><polyline points="203,199 201,193 215,194 214,187 226,178 223,179 225,179 228,178 225,176 226,169" fill="none" stroke="rgb(247,182,210)" stroke-width="1" opacity="0.7"/><polyline points="237,143 229,136 222,138 229,131 226,122 238,129 242,132 223,134" fill="none" stroke="rgb(127,127,127)" stroke-width="1" opacity="0.7"/><polyline points="160,222 166,220 144,223 146,225 137,234 137,227 131,224 126,218" fill="none" stroke="rgb(199,199,199)" stroke-width="1" opacity="0.7"/><polyline points="256,162 261,168 260,158 274,160 270,162 280,160 280,161 275,156" fill="none" stroke="rgb(188,189,34)" stroke-width="1" opacity="0.7"/><polyline points="387,7 389,7 381,0 388,0 390,0 395,8 392,13 398,2 400,5 400,0" fill="none" stroke="rgb(219,219,141)" stroke-width="1" opacity="0.7"/><polyline points="34,303 40,303 37,317 32,318 34,322 36,334 49,347 40,344" fill="none" stroke="rgb(23,190,207)" stroke-width="1" opacity="0.7"/><polyline points="141,21 131,32 119,20 120,22 133,37 139,33 121,33 125,46" fill="none" stroke="rgb(158,218,229)" stroke-width="1" opacity="0.7"/><polyline points="145,11 156,0 157,2 171,7 156,15 154,1 169,0 164,3" fill="none" stroke="rgb(31,119,180)" stroke-width="1" opacity="0.7"/><polyline points="144,25 133,22 129,30 138,36 135,28 126,19 119,14 117,12" fill="none" stroke="rgb(175,199,232)" stroke-width="1" opacity="0.7"/><polyline points="203,23 205,26 196,35 202,31 194,32 199,16 205,3 198,0 206,0" fill="none" stroke="rgb(255,127,14)" stroke-width="1" opacity="0.7"/><polyline points="38,400 44,398 33,400 15,395 22,393 21,381 20,377 24,375 24,374" fill="none" stroke="rgb(255,187,120)" stroke-width="1" opacity="0.7"/><polyline points="37,0 35,0 31,10 26,21 31,29 40,35 38,34 43,42" fill="none" stroke="rgb(44,160,44)" stroke-width="1" opacity="0.7"/><polyline points="157,339 146,327 143,327 148,311 145,299 147,307 143,319 148,304" fill="none" stroke="rgb(152,223,138)" stroke-width="1" opacity="0.7"/><polyline points="32,315 40,319 40,329 43,319 42,322 35,330 34,344" fill="none" stroke="rgb(214,39,40)" stroke-width="1" opacity="0.7"/><polyline points="192,154 196,149 196,162 206,160 217,166 229,187 232,173 234,170" fill="none" stroke="rgb(255,152,150)" stroke-width="1" opacity="0.7"/><polyline points="181,0 193,6 192,1 193,0 194,0 188,0 180,0" fill="none" stroke="rgb(148,103,189)" stroke-width="1" opacity="0.7"/><polyline points="237,125 248,134 228,143 228,152 226,147 222,147 226,152" fill="none" stroke="rgb(197,176,213)" stroke-width="1" opacity="0.7"/><polyline points="202,201 211,205 213,203 223,192 221,188 216,202 215,191" fill="none" stroke="rgb(140,86,75)" stroke-width="1" opacity="0.7"/><polyline points="0,81 11,84 19,101 15,102 22,110 22,113" fill="none" stroke="rgb(196,156,148)" stroke-width="1" opacity="0.7"/><polyline points="266,23 274,26 277,9 284,2 292,4 290,0" fill="none" stroke="rgb(227,119,194)" stroke-width="1" opacity="0.7"/><polyline points="56,0 60,0 52,0 45,0 44,0 57,0" fill="none" stroke="rgb(247,182,210)" stroke-width="1" opacity="0.7"/><polyline points="306,34 304,23 306,35 306,33 301,35" fill="none" stroke="rgb(127,127,127)" stroke-width="1" opacity="0.7"/><polyline points="101,242 103,242 104,236 96,238 98,225" fill="none" stroke="rgb(199,199,199)" stroke-width="1" opacity="0.7"/><polyline points="82,303 92,317 102,311 118,318 116,329" fill="none" stroke="rgb(188,189,34)" stroke-width="1" opacity="0.7"/><polyline points="64,4 69,19 73,19 77,15 72,3" fill="none" stroke="rgb(219,219,141)" stroke-width="1" opacity="0.7"/><polyline points="227,150 227,161 215,162 224,158 234,156" fill="none" stroke="rgb(23,190,207)" stroke-width="1" opacity="0.7"/><polyline points="374,400 373,389 369,390 367,379 374,382" fill="none" stroke="rgb(158,218,229)" stroke-width="1" opacity="0.7"/><polyline points="246,0 250,8 238,10 233,7" fill="none" stroke="rgb(31,119,180)" stroke-width="1" opacity="0.7"/><polyline points="97,1 95,1 99,0 110,0" fill="none" stroke="rgb(175,199,232)" stroke-width="1" opacity="0.7"/><polyline points="244,172 249,171 254,167 254,154" fill="none" stroke="rgb(255,127,14)" stroke-width="1" opacity="0.7"/><polyline points="180,140 173,148 160,146 151,134" fill="none" stroke="rgb(255,187,120)" stroke-width="1" opacity="0.7"/><polyline points="81,16 82,10 86,7 82,0" fill="none" stroke="rgb(44,160,44)" stroke-width="1" opacity="0.7"/><polyline points="241,160 255,176 248,187 242,171" fill="none" stroke="rgb(152,223,138)" stroke-width="1" opacity="0.7"/><polyline points="243,0 261,0 250,0 258,0" fill="none" stroke="rgb(214,39,40)" stroke-width="1" opacity="0.7"/><polyline points="95,50 102,57 89,55 91,58" fill="none" stroke="rgb(255,152,150)" stroke-width="1" opacity="0.7"/><polyline points="190,132 182,141 195,142" fill="none" stroke="rgb(148,103,189)" stroke-width="1" opacity="0.7"/><polyline points="280,165 280,171 273,177" fill="none" stroke="rgb(197,176,213)" stroke-width="1" opacity="0.7"/><polyline points="27,25 30,20 26,9" fill="none" stroke="rgb(140,86,75)" stroke-width="1" opacity="0.7"/><polyline points="98,122 112,135 110,134" fill="none" stroke="rgb(196,156,148)" stroke-width="1" opacity="0.7"/><polyline points="59,88 55,96 66,92" fill="none" stroke="rgb(227,119,194)" stroke-width="1" opacity="0.7"/><polyline points="97,49 93,41 82,34" fill="none" stroke="rgb(247,182,210)" stroke-width="1" opacity="0.7"/><polyline points="86,118 87,111 81,106" fill="none" stroke="rgb(127,127,127)" stroke-width="1" opacity="0.7"/><polyline points="79,84 74,99 74,92" fill="none" stroke="rgb(199,199,199)" stroke-width="1" opacity="0.7"/><polyline points="35,103 35,108 31,104" fill="none" stroke="rgb(188,189,34)" stroke-width="1" opacity="0.7"/><polyline points="78,134 68,126 68,113" fill="none" stroke="rgb(219,219,141)" stroke-width="1" opacity="0.7"/><polyline points="152,10 157,2 156,1" fill="none" stroke="rgb(23,190,207)" stroke-width="1" opacity="0.7"/><polyline points="181,9 174,15 167,7" fill="none" stroke="rgb(158,218,229)" stroke-width="1" opacity="0.7"/><polyline points="179,31 177,23 172,17" fill="none" stroke="rgb(31,119,180)" stroke-width="1" opacity="0.7"/><polyline points="183,72 189,80 179,80" fill="none" stroke="rgb(175,199,232)" stroke-width="1" opacity="0.7"/><polyline points="391,128 386,114 380,117" fill="none" stroke="rgb(255,127,14)" stroke-width="1" opacity="0.7"/><polyline points="391,165 385,164 400,173" fill="none" stroke="rgb(255,187,120)" stroke-width="1" opacity="0.7"/><polyline points="182,93 182,94 175,88" fill="none" stroke="rgb(44,160,44)" stroke-width="1" opacity="0.7"/><polyline points="199,117 201,93 211,100" fill="none" stroke="rgb(152,223,138)" stroke-width="1" opacity="0.7"/><polyline points="152,156 148,157 148,146" fill="none" stroke="rgb(214,39,40)" stroke-width="1" opacity="0.7"/><polyline points="125,54 109,53 108,39" fill="none" stroke="rgb(255,152,150)" stroke-width="1" opacity="0.7"/><polyline points="388,113 383,103 390,98" fill="none" stroke="rgb(148,103,189)" stroke-width="1" opacity="0.7"/><polyline points="333,56 327,52 313,48" fill="none" stroke="rgb(197,176,213)" stroke-width="1" opacity="0.7"/><polyline points="400,7 400,16" fill="none" stroke="rgb(140,86,75)" stroke-width="1" opacity="0.7"/><polyline points="271,154 264,152" fill="none" stroke="rgb(196,156,148)" stroke-width="1" opacity="0.7"/><polyline points="136,225 145,231" fill="none" stroke="rgb(227,119,194)" stroke-width="1" opacity="0.7"/><polyline points="222,135 219,136" fill="none" stroke="rgb(247,182,210)" stroke-width="1" opacity="0.7"/><polyline points="208,77 216,77" fill="none" stroke="rgb(127,127,127)" stroke-width="1" opacity="0.7"/><polyline points="37,275 36,276" fill="none" stroke="rgb(199,199,199)" stroke-width="1" opacity="0.7"/><polyline points="208,136 215,130" fill="none" stroke="rgb(188,189,34)" stroke-width="1" opacity="0.7"/><polyline points="241,400 234,400" fill="none" stroke="rgb(219,219,141)" stroke-width="1" opacity="0.7"/><polyline points="229,400 227,399" fill="none" stroke="rgb(23,190,207)" stroke-width="1" opacity="0.7"/></svg>