<svg width="500" height="300" viewBox="0 0 500 300" xmlns="http://www.w3.org/2000/svg"><rect width="500" height="300" fill="white"/><text x="250" y="16" text-anchor="middle" font-size="14" font-family="sans-serif">comets_br_particles_kinetics mass</text><text x="250" y="295" text-anchor="middle" font-size="10" font-family="sans-serif">time</text><text x="10" y="150" text-anchor="middle" font-size="10" font-family="sans-serif" transform="rotate(-90 10 150)">mass</text><polyline points="40,259 47,259 54,259 61,259 68,258 75,258 82,258 89,258 96,258 103,258 110,258 117,258 124,258 131,257 138,257 145,257 152,257 159,257 166,256 173,256 180,256 187,256 194,256 201,255 208,255 215,255 222,254 229,254 236,254 243,253 250,253 257,252 264,252 271,251 278,251 285,250 292,249 299,249 306,248 313,247 320,246 327,245 334,245 341,243 348,242 355,241 362,240 369,239 376,237 383,236 390,234 397,232 404,230 411,228 418,226 425,224 432,221 439,218 446,215 453,212 460,208" fill="none" stroke="rgb(31,119,180)" stroke-width="1.5" opacity="0.7"/><polyline points="40,229 47,226 54,224 61,222 68,219 75,216 82,213 89,210 96,206 103,202 110,198 117,193 124,188 131,182 138,176 145,170 152,163 159,155 166,147 173,138 180,128 187,117 194,105 201,92 208,78 215,62" fill="none" stroke="rgb(175,199,232)" stroke-width="1.5" opacity="0.7"/><polyline points="40,98 47,84 54,70" fill="none" stroke="rgb(255,127,14)" stroke-width="1.5" opacity="0.7"/><polyline points="47,233 54,233 61,231 68,229 75,227 82,224 89,222 96,219 103,215 110,212 117,209 124,205 131,201 138,197 145,192 152,187 159,181 166,175 173,169 180,161 187,154 194,145 201,135 208,125 215,114 222,102 229,89 236,75" fill="none" stroke="rgb(255,187,120)" stroke-width="1.5" opacity="0.7"/><polyline points="54,234 61,234 68,233 75,231 82,229 89,227 96,224 103,222 110,219 117,216 124,213 131,210 138,206 145,202 152,198 159,193 166,188 173,183 180,177 187,170 194,163 201,156 208,147 215,138 222,128 229,117 236,105 243,92 250,78 257,62" fill="none" stroke="rgb(44,160,44)" stroke-width="1.5" opacity="0.7"/><polyline points="61,157 68,149 75,140 82,130 89,120 96,108 103,95 110,81 117,67" fill="none" stroke="rgb(152,223,138)" stroke-width="1.5" opacity="0.7"/><polyline points="61,157 68,149 75,140 82,130 89,120 96,108 103,95 110,81 117,67" fill="none" stroke="rgb(214,39,40)" stroke-width="1.5" opacity="0.7"/><polyline points="82,233 89,233 96,231 103,229 110,227 117,225 124,222 131,220 138,217 145,214 152,211 159,207 166,203 173,199 180,194 187,189 194,184 201,178 208,172 215,165 222,158 229,150 236,141 243,131 250,121 257,109 264,96 271,82 278,67" fill="none" stroke="rgb(255,152,150)" stroke-width="1.5" opacity="0.7"/><polyline points="89,243 96,243 103,242 110,241 117,240 124,238 131,237 138,235 145,234 152,232 159,230 166,228 173,226 180,223 187,221 194,218 201,215 208,211 215,208 222,204 229,200 236,196 243,191 250,186 257,180 264,174 271,167 278,160 285,152 292,143 299,134 306,123 313,112 320,99 327,86 334,71" fill="none" stroke="rgb(148,103,189)" stroke-width="1.5" opacity="0.7"/><polyline points="103,256 110,256 117,256 124,256 131,256 138,255 145,255 152,255 159,255 166,254 173,254 180,254 187,253 194,253 201,252 208,252 215,251 222,251 229,250 236,249 243,249 250,248 257,247 264,246 271,245 278,244 285,243 292,242 299,241 306,239 313,238 320,236 327,235 334,233 341,231 348,229 355,227 362,224 369,222 376,219 383,216 390,213 397,209 404,205 411,201 418,197 425,192 432,187 439,182 446,176 453,169 460,162" fill="none" stroke="rgb(197,176,213)" stroke-width="1.5" opacity="0.7"/><polyline points="117,237 124,237 131,235 138,234 145,232 152,230 159,228 166,226 173,223 180,221 187,218 194,215 201,211 208,208 215,204 222,200 229,195 236,191 243,185 250,179 257,173 264,166 271,159 278,151 285,142 292,132 299,122 306,110 313,98 320,84 327,69" fill="none" stroke="rgb(140,86,75)" stroke-width="1.5" opacity="0.7"/><polyline points="117,253 124,253 131,252 138,252 145,251 152,251 159,250 166,250 173,249 180,248 187,247 194,247 201,246 208,245 215,244 222,242 229,241 236,240 243,239 250,237 257,235 264,234 271,232 278,230 285,228 292,225 299,223 306,220 313,217 320,214 327,211 334,207 341,203 348,199 355,194 362,189 369,184 376,178 383,171 390,164 397,157 404,149 411,141 418,131 425,120 432,108 439,96 446,82 453,67" fill="none" stroke="rgb(196,156,148)" stroke-width="1.5" opacity="0.7"/><polyline points="124,155 131,147 138,138 145,128 152,117 159,105 166,92 173,78 180,63" fill="none" stroke="rgb(227,119,194)" stroke-width="1.5" opacity="0.7"/><polyline points="124,155 131,147 138,138 145,128 152,117 159,105 166,92 173,78 180,63" fill="none" stroke="rgb(247,182,210)" stroke-width="1.5" opacity="0.7"/><polyline points="124,155 131,147 138,138 145,128 152,117 159,105 166,92 173,78 180,63" fill="none" stroke="rgb(127,127,127)" stroke-width="1.5" opacity="0.7"/><polyline points="124,155 131,147 138,138 145,128 152,117 159,105 166,92 173,78 180,63" fill="none" stroke="rgb(199,199,199)" stroke-width="1.5" opacity="0.7"/><polyline points="131,232 138,232 145,230 152,228 159,226 166,223 173,221 180,218 187,215 194,212 201,208 208,205 215,201 222,196 229,191 236,186 243,180 250,174 257,168 264,160 271,152 278,144 285,134 292,124 299,112 306,100 313,86 320,72" fill="none" stroke="rgb(188,189,34)" stroke-width="1.5" opacity="0.7"/><polyline points="180,249 187,249 194,248 201,247 208,247 215,246 222,245 229,244 236,243 243,242 250,240 257,239 264,238 271,236 278,235 285,233 292,231 299,229 306,227 313,225 320,222 327,219 334,216 341,213 348,210 355,206 362,202 369,198 376,193 383,188 390,183 397,177 404,170 411,163 418,156 425,147 432,138 439,128 446,117 453,105 460,92" fill="none" stroke="rgb(219,219,141)" stroke-width="1.5" opacity="0.7"/><polyline points="187,153 194,145 201,136 208,126 215,115 222,103 229,89 236,75" fill="none" stroke="rgb(23,190,207)" stroke-width="1.5" opacity="0.7"/><polyline points="187,153 194,145 201,136 208,126 215,114 222,102 229,89 236,75 243,60" fill="none" stroke="rgb(158,218,229)" stroke-width="1.5" opacity="0.7"/><polyline points="187,153 194,145 201,136 208,125 215,114 222,102 229,89 236,75" fill="none" stroke="rgb(31,119,180)" stroke-width="1.5" opacity="0.7"/><polyline points="187,153 194,145 201,136 208,126 215,114 222,102 229,89 236,75" fill="none" stroke="rgb(175,199,232)" stroke-width="1.5" opacity="0.7"/><polyline points="187,153 194,145 201,136 208,126 215,115 222,102 229,89 236,75" fill="none" stroke="rgb(255,127,14)" stroke-width="1.5" opacity="0.7"/><polyline points="187,153 194,145 201,136 208,126 215,115 222,102 229,89 236,75" fill="none" stroke="rgb(255,187,120)" stroke-width="1.5" opacity="0.7"/><polyline points="187,153 194,145 201,136 208,125 215,114 222,102 229,89 236,75" fill="none" stroke="rgb(44,160,44)" stroke-width="1.5" opacity="0.7"/><polyline points="187,153 194,145 201,136 208,125 215,114 222,102 229,89 236,75" fill="none" stroke="rgb(152,223,138)" stroke-width="1.5" opacity="0.7"/><polyline points="194,260 201,260 208,260 215,260 222,260 229,260 236,259 243,259 250,259 257,259 264,259 271,259 278,259 285,259 292,259 299,259 306,259 313,259 320,259 327,259 334,259 341,259 348,259 355,259 362,258 369,258 376,258 383,258 390,258 397,258 404,258 411,258 418,257 425,257 432,257 439,257 446,257 453,257 460,256" fill="none" stroke="rgb(214,39,40)" stroke-width="1.5" opacity="0.7"/><polyline points="201,230 208,230 215,228 222,225 229,223 236,220 243,217 250,214 257,211 264,208 271,204 278,200 285,195 292,190 299,185 306,179 313,173 320,166 327,158 334,150 341,141 348,131 355,121 362,109 369,96 376,83 383,68" fill="none" stroke="rgb(255,152,150)" stroke-width="1.5" opacity="0.7"/><polyline points="215,245 222,245 229,244 236,242 243,241 250,240 257,238 264,237 271,236 278,235 285,235 292,235 299,235 306,235 313,234 320,234 327,234 334,234 341,234 348,234 355,234 362,234 369,234 376,234 383,234 390,232 397,230 404,230 411,230 418,230 425,230 432,228 439,226 446,224 453,222 460,222" fill="none" stroke="rgb(148,103,189)" stroke-width="1.5" opacity="0.7"/><polyline points="222,153 229,144 236,135 243,125 250,114 257,101 264,88 271,74" fill="none" stroke="rgb(197,176,213)" stroke-width="1.5" opacity="0.7"/><polyline points="222,153 229,144 236,135 243,125 250,114 257,101 264,88 271,74" fill="none" stroke="rgb(140,86,75)" stroke-width="1.5" opacity="0.7"/><polyline points="243,160 250,152 257,143 264,133 271,123 278,112 285,99 292,86 299,71" fill="none" stroke="rgb(196,156,148)" stroke-width="1.5" opacity="0.7"/><polyline points="243,160 250,152 257,143 264,133 271,123 278,112 285,99 292,86 299,71" fill="none" stroke="rgb(227,119,194)" stroke-width="1.5" opacity="0.7"/><polyline points="243,160 250,152 257,143 264,134 271,124 278,113 285,100 292,87 299,73" fill="none" stroke="rgb(247,182,210)" stroke-width="1.5" opacity="0.7"/><polyline points="243,160 250,152 257,144 264,134 271,124 278,113 285,101 292,87 299,73" fill="none" stroke="rgb(127,127,127)" stroke-width="1.5" opacity="0.7"/><polyline points="243,160 250,152 257,143 264,134 271,124 278,112 285,100 292,87 299,72" fill="none" stroke="rgb(199,199,199)" stroke-width="1.5" opacity="0.7"/><polyline points="243,160 250,152 257,143 264,134 271,124 278,112 285,100 292,87 299,72" fill="none" stroke="rgb(188,189,34)" stroke-width="1.5" opacity="0.7"/><polyline points="243,160 250,152 257,143 264,134 271,124 278,112 285,100 292,87 299,73" fill="none" stroke="rgb(219,219,141)" stroke-width="1.5" opacity="0.7"/><polyline points="243,160 250,152 257,143 264,134 271,124 278,112 285,100 292,87 299,72" fill="none" stroke="rgb(23,190,207)" stroke-width="1.5" opacity="0.7"/><polyline points="243,160 250,152 257,143 264,134 271,124 278,112 285,100 292,87 299,72" fill="none" stroke="rgb(158,218,229)" stroke-width="1.5" opacity="0.7"/><polyline points="243,160 250,152 257,143 264,134 271,124 278,112 285,100 292,87 299,72" fill="none" stroke="rgb(31,119,180)" stroke-width="1.5" opacity="0.7"/><polyline points="243,160 250,152 257,143 264,134 271,124 278,112 285,100 292,87 299,72" fill="none" stroke="rgb(175,199,232)" stroke-width="1.5" opacity="0.7"/><polyline points="243,160 250,152 257,143 264,134 271,124 278,112 285,100 292,87 299,72" fill="none" stroke="rgb(255,127,14)" stroke-width="1.5" opacity="0.7"/><polyline points="243,160 250,152 257,143 264,134 271,124 278,113 285,101 292,88 299,74" fill="none" stroke="rgb(255,187,120)" stroke-width="1.5" opacity="0.7"/><polyline points="243,160 250,152 257,143 264,134 271,124 278,113 285,101 292,88 299,74" fill="none" stroke="rgb(44,160,44)" stroke-width="1.5" opacity="0.7"/><polyline points="243,160 250,152 257,144 264,134 271,124 278,113 285,101 292,88 299,73" fill="none" stroke="rgb(152,223,138)" stroke-width="1.5" opacity="0.7"/><polyline points="243,160 250,152 257,144 264,134 271,124 278,113 285,101 292,88 299,74" fill="none" stroke="rgb(214,39,40)" stroke-width="1.5" opacity="0.7"/><polyline points="250,152 257,143 264,134 271,124 278,112 285,100 292,87 299,72" fill="none" stroke="rgb(255,152,150)" stroke-width="1.5" opacity="0.7"/><polyline points="250,152 257,143 264,134 271,124 278,112 285,100 292,87 299,73" fill="none" stroke="rgb(148,103,189)" stroke-width="1.5" opacity="0.7"/><polyline points="264,153 271,144 278,135 285,124 292,113 299,101 306,87 313,73" fill="none" stroke="rgb(197,176,213)" stroke-width="1.5" opacity="0.7"/><polyline points="264,153 271,144 278,135 285,124 292,113 299,101 306,87 313,72" fill="none" stroke="rgb(140,86,75)" stroke-width="1.5" opacity="0.7"/><polyline points="271,256 278,256 285,255 292,255 299,255 306,255 313,254 320,254 327,253 334,253 341,252 348,252 355,251 362,250 369,249 376,249 383,248 390,247 397,246 404,245 411,243 418,242 425,242 432,241 439,241 446,241 453,240 460,240" fill="none" stroke="rgb(196,156,148)" stroke-width="1.5" opacity="0.7"/><polyline points="278,159 285,151 292,142 299,133 306,122 313,111 320,99 327,86 334,71" fill="none" stroke="rgb(227,119,194)" stroke-width="1.5" opacity="0.7"/><polyline points="278,159 285,151 292,142 299,133 306,122 313,111 320,99 327,85 334,70" fill="none" stroke="rgb(247,182,210)" stroke-width="1.5" opacity="0.7"/><polyline points="278,159 285,151 292,142 299,133 306,123 313,111 320,99 327,86 334,71" fill="none" stroke="rgb(127,127,127)" stroke-width="1.5" opacity="0.7"/><polyline points="278,159 285,151 292,142 299,133 306,123 313,111 320,99 327,85 334,70" fill="none" stroke="rgb(199,199,199)" stroke-width="1.5" opacity="0.7"/><polyline points="285,156 292,147 299,138 306,128 313,117 320,105 327,92 334,78 341,63" fill="none" stroke="rgb(188,189,34)" stroke-width="1.5" opacity="0.7"/><polyline points="285,156 292,147 299,138 306,128 313,117 320,106 327,93 334,78 341,63" fill="none" stroke="rgb(219,219,141)" stroke-width="1.5" opacity="0.7"/><polyline points="306,225 313,225 320,223 327,220 334,217 341,214 348,211 355,207 362,204 369,200 376,195 383,190 390,185 397,179 404,173 411,166 418,159 425,151 432,142 439,133 446,122 453,111 460,98" fill="none" stroke="rgb(23,190,207)" stroke-width="1.5" opacity="0.7"/><polyline points="306,159 313,151 320,142 327,133 334,122 341,111 348,99 355,85 362,71" fill="none" stroke="rgb(158,218,229)" stroke-width="1.5" opacity="0.7"/><polyline points="306,159 313,151 320,142 327,133 334,122 341,111 348,99 355,86 362,72" fill="none" stroke="rgb(31,119,180)" stroke-width="1.5" opacity="0.7"/><polyline points="306,159 313,151 320,143 327,134 334,124 341,114 348,103 355,90 362,76 369,63" fill="none" stroke="rgb(175,199,232)" stroke-width="1.5" opacity="0.7"/><polyline points="306,159 313,151 320,143 327,133 334,123 341,112 348,99 355,86 362,71" fill="none" stroke="rgb(255,127,14)" stroke-width="1.5" opacity="0.7"/><polyline points="306,158 313,150 320,141 327,131 334,121 341,109 348,97 355,83 362,68" fill="none" stroke="rgb(255,187,120)" stroke-width="1.5" opacity="0.7"/><polyline points="306,158 313,150 320,141 327,131 334,121 341,109 348,97 355,83 362,68" fill="none" stroke="rgb(44,160,44)" stroke-width="1.5" opacity="0.7"/><polyline points="306,158 313,150 320,141 327,131 334,120 341,108 348,95 355,81 362,65" fill="none" stroke="rgb(152,223,138)" stroke-width="1.5" opacity="0.7"/><polyline points="306,158 313,150 320,141 327,131 334,120 341,109 348,96 355,82 362,68" fill="none" stroke="rgb(214,39,40)" stroke-width="1.5" opacity="0.7"/><polyline points="306,158 313,150 320,142 327,132 334,122 341,110 348,98 355,84 362,70" fill="none" stroke="rgb(255,152,150)" stroke-width="1.5" opacity="0.7"/><polyline points="306,158 313,150 320,142 327,132 334,122 341,110 348,98 355,84 362,70" fill="none" stroke="rgb(148,103,189)" stroke-width="1.5" opacity="0.7"/><polyline points="306,159 313,151 320,142 327,133 334,123 341,111 348,99 355,87 362,72" fill="none" stroke="rgb(197,176,213)" stroke-width="1.5" opacity="0.7"/><polyline points="306,159 313,151 320,142 327,133 334,123 341,111 348,99 355,86 362,71" fill="none" stroke="rgb(140,86,75)" stroke-width="1.5" opacity="0.7"/><polyline points="306,158 313,150 320,141 327,132 334,121 341,110 348,97 355,84 362,69" fill="none" stroke="rgb(196,156,148)" stroke-width="1.5" opacity="0.7"/><polyline points="306,158 313,150 320,141 327,132 334,121 341,110 348,98 355,84 362,69" fill="none" stroke="rgb(227,119,194)" stroke-width="1.5" opacity="0.7"/><polyline points="306,158 313,150 320,141 327,132 334,121 341,110 348,98 355,84 362,69" fill="none" stroke="rgb(247,182,210)" stroke-width="1.5" opacity="0.7"/><polyline points="306,158 313,150 320,141 327,132 334,121 341,110 348,98 355,84 362,69" fill="none" stroke="rgb(127,127,127)" stroke-width="1.5" opacity="0.7"/><polyline points="306,159 313,152 320,143 327,134 334,125 341,114 348,103 355,92 362,80 369,65" fill="none" stroke="rgb(199,199,199)" stroke-width="1.5" opacity="0.7"/><polyline points="306,159 313,152 320,143 327,134 334,125 341,114 348,103 355,92 362,80 369,64" fill="none" stroke="rgb(188,189,34)" stroke-width="1.5" opacity="0.7"/><polyline points="306,158 313,150 320,142 327,132 334,122 341,111 348,98 355,85 362,70" fill="none" stroke="rgb(219,219,141)" stroke-width="1.5" opacity="0.7"/><polyline points="306,158 313,150 320,142 327,132 334,122 341,110 348,98 355,85 362,70" fill="none" stroke="rgb(23,190,207)" stroke-width="1.5" opacity="0.7"/><polyline points="306,158 313,150 320,142 327,132 334,122 341,110 348,98 355,84 362,69" fill="none" stroke="rgb(158,218,229)" stroke-width="1.5" opacity="0.7"/><polyline points="306,158 313,150 320,142 327,132 334,122 341,110 348,98 355,84 362,70" fill="none" stroke="rgb(31,119,180)" stroke-width="1.5" opacity="0.7"/><polyline points="306,158 313,150 320,142 327,132 334,122 341,110 348,98 355,84 362,70" fill="none" stroke="rgb(175,199,232)" stroke-width="1.5" opacity="0.7"/><polyline points="306,158 313,150 320,142 327,132 334,122 341,111 348,99 355,85 362,71" fill="none" stroke="rgb(255,127,14)" stroke-width="1.5" opacity="0.7"/><polyline points="306,158 313,150 320,142 327,132 334,122 341,110 348,98 355,84 362,70" fill="none" stroke="rgb(255,187,120)" stroke-width="1.5" opacity="0.7"/><polyline points="306,158 313,150 320,142 327,132 334,122 341,111 348,99 355,86 362,71" fill="none" stroke="rgb(44,160,44)" stroke-width="1.5" opacity="0.7"/><polyline points="306,158 313,150 320,142 327,132 334,122 341,111 348,99 355,85 362,71" fill="none" stroke="rgb(152,223,138)" stroke-width="1.5" opacity="0.7"/><polyline points="306,158 313,150 320,142 327,132 334,122 341,111 348,98 355,85 362,71" fill="none" stroke="rgb(214,39,40)" stroke-width="1.5" opacity="0.7"/><polyline points="306,159 313,152 320,144 327,135 334,125 341,114 348,102 355,89 362,75" fill="none" stroke="rgb(255,152,150)" stroke-width="1.5" opacity="0.7"/><polyline points="306,159 313,152 320,143 327,134 334,124 341,113 348,101 355,89 362,75 369,61" fill="none" stroke="rgb(148,103,189)" stroke-width="1.5" opacity="0.7"/><polyline points="306,160 313,152 320,144 327,134 334,124 341,113 348,101 355,87 362,73" fill="none" stroke="rgb(197,176,213)" stroke-width="1.5" opacity="0.7"/><polyline points="306,160 313,152 320,144 327,135 334,126 341,115 348,104 355,93 362,81 369,66" fill="none" stroke="rgb(140,86,75)" stroke-width="1.5" opacity="0.7"/><polyline points="306,159 313,151 320,142 327,133 334,122 341,111 348,99 355,85 362,70" fill="none" stroke="rgb(196,156,148)" stroke-width="1.5" opacity="0.7"/><polyline points="306,159 313,151 320,142 327,133 334,122 341,111 348,98 355,85 362,70" fill="none" stroke="rgb(227,119,194)" stroke-width="1.5" opacity="0.7"/><polyline points="306,158 313,150 320,142 327,132 334,122 341,110 348,98 355,84 362,70" fill="none" stroke="rgb(247,182,210)" stroke-width="1.5" opacity="0.7"/><polyline points="306,158 313,150 320,142 327,133 334,123 341,112 348,100 355,88 362,74" fill="none" stroke="rgb(127,127,127)" stroke-width="1.5" opacity="0.7"/><polyline points="313,247 320,247 327,246 334,245 341,244 348,243 355,242 362,241 369,240 376,238 383,237 390,235 397,233 404,232 411,230 418,228 425,225 432,223 439,220 446,217 453,214 460,211" fill="none" stroke="rgb(199,199,199)" stroke-width="1.5" opacity="0.7"/><polyline points="313,256 320,256 327,256 334,255 341,255 348,255 355,254 362,254 369,253 376,253 383,252 390,252 397,251 404,251 411,250 418,249 425,249 432,248 439,247 446,246 453,245 460,244" fill="none" stroke="rgb(188,189,34)" stroke-width="1.5" opacity="0.7"/><polyline points="320,158 327,150 334,141 341,132 348,121 355,110 362,97 369,83 376,68" fill="none" stroke="rgb(219,219,141)" stroke-width="1.5" opacity="0.7"/><polyline points="320,158 327,150 334,142 341,132 348,122 355,111 362,99 369,86 376,72" fill="none" stroke="rgb(23,190,207)" stroke-width="1.5" opacity="0.7"/><polyline points="320,159 327,151 334,142 341,133 348,123 355,112 362,100 369,87 376,74" fill="none" stroke="rgb(158,218,229)" stroke-width="1.5" opacity="0.7"/><polyline points="320,159 327,151 334,142 341,133 348,123 355,112 362,100 369,87 376,74" fill="none" stroke="rgb(31,119,180)" stroke-width="1.5" opacity="0.7"/><polyline points="327,241 334,241 341,240 348,238 355,237 362,235 369,234 376,232 383,230 390,228 397,226 404,223 411,221 418,218 425,215 432,212 439,208 446,205 453,201 460,196" fill="none" stroke="rgb(175,199,232)" stroke-width="1.5" opacity="0.7"/><polyline points="327,233 334,233 341,231 348,229 355,229 362,226 369,224 376,221 383,218 390,214 397,211 404,207 411,203 418,202 425,202 432,202 439,202 446,201 453,201 460,201" fill="none" stroke="rgb(255,127,14)" stroke-width="1.5" opacity="0.7"/><polyline points="327,158 334,150 341,141 348,131 355,120 362,108 369,96 376,82 383,67" fill="none" stroke="rgb(255,187,120)" stroke-width="1.5" opacity="0.7"/><polyline points="327,158 334,150 341,141 348,131 355,120 362,108 369,95 376,80 383,65" fill="none" stroke="rgb(44,160,44)" stroke-width="1.5" opacity="0.7"/><polyline points="334,259 341,259 348,259 355,259 362,259 369,259 376,259 383,259 390,259 397,259 404,258 411,258 418,258 425,258 432,258 439,258 446,258 453,258 460,257" fill="none" stroke="rgb(152,223,138)" stroke-width="1.5" opacity="0.7"/><polyline points="334,156 341,148 348,139 355,129 362,118 369,106 376,93 383,79 390,63" fill="none" stroke="rgb(214,39,40)" stroke-width="1.5" opacity="0.7"/><polyline points="334,156 341,148 348,139 355,129 362,118 369,106 376,93 383,79 390,64" fill="none" stroke="rgb(255,152,150)" stroke-width="1.5" opacity="0.7"/><polyline points="341,244 348,244 355,242 362,241 369,240 376,239 383,237 390,236 397,234 404,232 411,230 418,228 425,226 432,223 439,221 446,218 453,215 460,213" fill="none" stroke="rgb(148,103,189)" stroke-width="1.5" opacity="0.7"/><polyline points="341,157 348,149 355,140 362,130 369,120 376,108 383,95 390,82 397,69" fill="none" stroke="rgb(197,176,213)" stroke-width="1.5" opacity="0.7"/><polyline points="341,157 348,149 355,140 362,130 369,120 376,108 383,95 390,82 397,67" fill="none" stroke="rgb(140,86,75)" stroke-width="1.5" opacity="0.7"/><polyline points="341,157 348,149 355,140 362,131 369,120 376,108 383,96 390,82 397,67" fill="none" stroke="rgb(196,156,148)" stroke-width="1.5" opacity="0.7"/><polyline points="341,157 348,149 355,140 362,131 369,120 376,108 383,95 390,82 397,67" fill="none" stroke="rgb(227,119,194)" stroke-width="1.5" opacity="0.7"/><polyline points="341,158 348,150 355,142 362,132 369,122 376,112 383,100 390,87 397,73" fill="none" stroke="rgb(247,182,210)" stroke-width="1.5" opacity="0.7"/><polyline points="341,158 348,150 355,142 362,132 369,122 376,112 383,100 390,88 397,76 404,63" fill="none" stroke="rgb(127,127,127)" stroke-width="1.5" opacity="0.7"/><polyline points="341,157 348,149 355,140 362,130 369,120 376,108 383,95 390,81 397,66" fill="none" stroke="rgb(199,199,199)" stroke-width="1.5" opacity="0.7"/><polyline points="341,157 348,149 355,140 362,131 369,120 376,108 383,96 390,82 397,67" fill="none" stroke="rgb(188,189,34)" stroke-width="1.5" opacity="0.7"/><polyline points="341,158 348,150 355,141 362,131 369,121 376,110 383,97 390,84 397,69" fill="none" stroke="rgb(219,219,141)" stroke-width="1.5" opacity="0.7"/><polyline points="341,158 348,150 355,141 362,131 369,121 376,110 383,98 390,84 397,69" fill="none" stroke="rgb(23,190,207)" stroke-width="1.5" opacity="0.7"/><polyline points="348,258 355,258 362,258 369,258 376,258 383,258 390,258 397,258 404,258 411,257 418,257 425,257 432,257 439,257 446,256 453,256 460,256" fill="none" stroke="rgb(158,218,229)" stroke-width="1.5" opacity="0.7"/><polyline points="348,153 355,145 362,136 369,125 376,114 383,102 390,89 397,75" fill="none" stroke="rgb(31,119,180)" stroke-width="1.5" opacity="0.7"/><polyline points="348,153 355,145 362,136 369,125 376,114 383,102 390,89 397,75" fill="none" stroke="rgb(175,199,232)" stroke-width="1.5" opacity="0.7"/><polyline points="348,153 355,145 362,135 369,125 376,114 383,102 390,89 397,74" fill="none" stroke="rgb(255,127,14)" stroke-width="1.5" opacity="0.7"/><polyline points="348,153 355,145 362,135 369,125 376,114 383,102 390,89 397,74" fill="none" stroke="rgb(255,187,120)" stroke-width="1.5" opacity="0.7"/><polyline points="369,157 376,149 383,141 390,131 397,120 404,109 411,96 418,82 425,68" fill="none" stroke="rgb(44,160,44)" stroke-width="1.5" opacity="0.7"/><polyline points="369,157 376,149 383,141 390,131 397,121 404,109 411,97 418,83 425,69" fill="none" stroke="rgb(152,223,138)" stroke-width="1.5" opacity="0.7"/><polyline points="369,159 376,151 383,144 390,135 397,127 404,116 411,105 418,93 425,80 432,78 439,78 446,77 453,64" fill="none" stroke="rgb(214,39,40)" stroke-width="1.5" opacity="0.7"/><polyline points="369,159 376,151 383,144 390,135 397,125 404,114 411,103 418,91 425,78 432,76 439,76 446,76 453,62" fill="none" stroke="rgb(255,152,150)" stroke-width="1.5" opacity="0.7"/><polyline points="369,158 376,150 383,141 390,132 397,121 404,110 411,97 418,83 425,69" fill="none" stroke="rgb(148,103,189)" stroke-width="1.5" opacity="0.7"/><polyline points="369,158 376,150 383,141 390,132 397,121 404,110 411,98 418,84 425,70" fill="none" stroke="rgb(197,176,213)" stroke-width="1.5" opacity="0.7"/><polyline points="369,156 376,148 383,139 390,129 397,118 404,107 411,94 418,80 425,65" fill="none" stroke="rgb(140,86,75)" stroke-width="1.5" opacity="0.7"/><polyline points="369,156 376,148 383,139 390,129 397,118 404,107 411,94 418,80 425,65" fill="none" stroke="rgb(196,156,148)" stroke-width="1.5" opacity="0.7"/><polyline points="369,156 376,148 383,139 390,129 397,118 404,107 411,94 418,80 425,65" fill="none" stroke="rgb(227,119,194)" stroke-width="1.5" opacity="0.7"/><polyline points="369,156 376,148 383,139 390,129 397,118 404,107 411,94 418,80 425,64" fill="none" stroke="rgb(247,182,210)" stroke-width="1.5" opacity="0.7"/><polyline points="369,154 376,146 383,137 390,127 397,116 404,104 411,90 418,76 425,61" fill="none" stroke="rgb(127,127,127)" stroke-width="1.5" opacity="0.7"/><polyline points="369,154 376,146 383,137 390,127 397,116 404,103 411,90 418,76 425,60" fill="none" stroke="rgb(199,199,199)" stroke-width="1.5" opacity="0.7"/><polyline points="369,156 376,147 383,138 390,129 397,118 404,106 411,93 418,79 425,64" fill="none" stroke="rgb(188,189,34)" stroke-width="1.5" opacity="0.7"/><polyline points="369,156 376,147 383,138 390,129 397,118 404,106 411,93 418,79 425,64" fill="none" stroke="rgb(219,219,141)" stroke-width="1.5" opacity="0.7"/><polyline points="369,157 376,149 383,140 390,130 397,120 404,108 411,96 418,82 425,68" fill="none" stroke="rgb(23,190,207)" stroke-width="1.5" opacity="0.7"/><polyline points="369,157 376,149 383,140 390,130 397,120 404,108 411,95 418,82 425,67" fill="none" stroke="rgb(158,218,229)" stroke-width="1.5" opacity="0.7"/><polyline points="369,157 376,149 383,140 390,130 397,120 404,108 411,95 418,82 425,67" fill="none" stroke="rgb(31,119,180)" stroke-width="1.5" opacity="0.7"/><polyline points="369,157 376,149 383,140 390,130 397,120 404,108 411,95 418,82 425,67" fill="none" stroke="rgb(175,199,232)" stroke-width="1.5" opacity="0.7"/><polyline points="369,158 376,150 383,141 390,132 397,121 404,110 411,98 418,84 425,70 432,68" fill="none" stroke="rgb(255,127,14)" stroke-width="1.5" opacity="0.7"/><polyline points="369,158 376,150 383,141 390,132 397,121 404,110 411,98 418,84 425,70" fill="none" stroke="rgb(255,187,120)" stroke-width="1.5" opacity="0.7"/><polyline points="369,158 376,151 383,142 390,133 397,124 404,115 411,107 418,102 425,98 432,97 439,83 446,69" fill="none" stroke="rgb(44,160,44)" stroke-width="1.5" opacity="0.7"/><polyline points="369,158 376,151 383,142 390,133 397,123 404,111 411,99 418,86 425,72" fill="none" stroke="rgb(152,223,138)" stroke-width="1.5" opacity="0.7"/><polyline points="369,157 376,149 383,140 390,130 397,120 404,108 411,95 418,82 425,67" fill="none" stroke="rgb(214,39,40)" stroke-width="1.5" opacity="0.7"/><polyline points="369,157 376,149 383,140 390,130 397,120 404,108 411,96 418,82 425,67" fill="none" stroke="rgb(255,152,150)" stroke-width="1.5" opacity="0.7"/><polyline points="369,157 376,149 383,140 390,131 397,120 404,109 411,96 418,83 425,68" fill="none" stroke="rgb(148,103,189)" stroke-width="1.5" opacity="0.7"/><polyline points="369,157 376,149 383,140 390,130 397,120 404,108 411,95 418,82 425,67" fill="none" stroke="rgb(197,176,213)" stroke-width="1.5" opacity="0.7"/><polyline points="369,157 376,149 383,140 390,130 397,120 404,109 411,96 418,83 425,69" fill="none" stroke="rgb(140,86,75)" stroke-width="1.5" opacity="0.7"/><polyline points="369,157 376,149 383,140 390,131 397,120 404,109 411,97 418,83 425,70" fill="none" stroke="rgb(196,156,148)" stroke-width="1.5" opacity="0.7"/><polyline points="369,157 376,149 383,140 390,130 397,120 404,108 411,96 418,82 425,67" fill="none" stroke="rgb(227,119,194)" stroke-width="1.5" opacity="0.7"/><polyline points="369,157 376,149 383,140 390,130 397,120 404,108 411,96 418,82 425,68" fill="none" stroke="rgb(247,182,210)" stroke-width="1.5" opacity="0.7"/><polyline points="369,157 376,149 383,141 390,131 397,121 404,110 411,100 418,90 425,80 432,66" fill="none" stroke="rgb(127,127,127)" stroke-width="1.5" opacity="0.7"/><polyline points="369,157 376,149 383,141 390,131 397,121 404,110 411,98 418,85 425,71" fill="none" stroke="rgb(199,199,199)" stroke-width="1.5" opacity="0.7"/><polyline points="369,157 376,149 383,141 390,132 397,123 404,114 411,104 418,94 425,85 432,75 439,67" fill="none" stroke="rgb(188,189,34)" stroke-width="1.5" opacity="0.7"/><polyline points="369,157 376,149 383,141 390,131 397,121 404,110 411,98 418,85 425,71" fill="none" stroke="rgb(219,219,141)" stroke-width="1.5" opacity="0.7"/><polyline points="369,157 376,149 383,140 390,130 397,120 404,108 411,95 418,81 425,66" fill="none" stroke="rgb(23,190,207)" stroke-width="1.5" opacity="0.7"/><polyline points="369,157 376,149 383,140 390,130 397,120 404,108 411,96 418,82 425,67" fill="none" stroke="rgb(158,218,229)" stroke-width="1.5" opacity="0.7"/><polyline points="369,158 376,150 383,142 390,134 397,125 404,116 411,108 418,103 425,100 432,98 439,98 446,98 453,98 460,85" fill="none" stroke="rgb(31,119,180)" stroke-width="1.5" opacity="0.7"/><polyline points="369,158 376,150 383,142 390,133 397,124 404,114 411,106 418,101 425,97 432,95 439,83 446,83 453,83 460,82" fill="none" stroke="rgb(175,199,232)" stroke-width="1.5" opacity="0.7"/><polyline points="369,157 376,149 383,140 390,131 397,120 404,109 411,96 418,83 425,69" fill="none" stroke="rgb(255,127,14)" stroke-width="1.5" opacity="0.7"/><polyline points="369,157 376,149 383,140 390,130 397,120 404,108 411,95 418,81 425,67" fill="none" stroke="rgb(255,187,120)" stroke-width="1.5" opacity="0.7"/><polyline points="369,158 376,150 383,141 390,131 397,121 404,110 411,102 418,89 425,75 432,61" fill="none" stroke="rgb(44,160,44)" stroke-width="1.5" opacity="0.7"/><polyline points="369,158 376,150 383,141 390,131 397,121 404,110 411,97 418,84 425,70" fill="none" stroke="rgb(152,223,138)" stroke-width="1.5" opacity="0.7"/><polyline points="369,157 376,149 383,140 390,131 397,120 404,109 411,96 418,83 425,69" fill="none" stroke="rgb(214,39,40)" stroke-width="1.5" opacity="0.7"/><polyline points="369,157 376,149 383,140 390,131 397,120 404,109 411,96 418,83 425,69" fill="none" stroke="rgb(255,152,150)" stroke-width="1.5" opacity="0.7"/><polyline points="369,158 376,150 383,142 390,134 397,123 404,112 411,100 418,87 425,73" fill="none" stroke="rgb(148,103,189)" stroke-width="1.5" opacity="0.7"/><polyline points="369,158 376,150 383,141 390,132 397,121 404,110 411,98 418,93 425,90 432,75 439,61" fill="none" stroke="rgb(197,176,213)" stroke-width="1.5" opacity="0.7"/><polyline points="369,158 376,150 383,142 390,134 397,124 404,113 411,101 418,88 425,74" fill="none" stroke="rgb(140,86,75)" stroke-width="1.5" opacity="0.7"/><polyline points="369,158 376,150 383,142 390,133 397,124 404,116 411,108 418,102 425,99 432,97 439,97 446,97 453,97 460,97" fill="none" stroke="rgb(196,156,148)" stroke-width="1.5" opacity="0.7"/><polyline points="369,158 376,151 383,143 390,133 397,124 404,116 411,108 418,95 425,81 432,67" fill="none" stroke="rgb(227,119,194)" stroke-width="1.5" opacity="0.7"/><polyline points="369,158 376,151 383,142 390,133 397,124 404,112 411,100 418,87 425,72" fill="none" stroke="rgb(247,182,210)" stroke-width="1.5" opacity="0.7"/><polyline points="369,160 376,152 383,145 390,136 397,128 404,117 411,110 418,98 425,88 432,75" fill="none" stroke="rgb(127,127,127)" stroke-width="1.5" opacity="0.7"/><polyline points="369,160 376,152 383,145 390,136 397,126 404,115 411,103 418,91 425,77 432,62" fill="none" stroke="rgb(199,199,199)" stroke-width="1.5" opacity="0.7"/><polyline points="369,159 376,151 383,142 390,133 397,122 404,111 411,99 418,85 425,71" fill="none" stroke="rgb(188,189,34)" stroke-width="1.5" opacity="0.7"/><polyline points="369,157 376,149 383,140 390,131 397,120 404,109 411,96 418,82 425,67" fill="none" stroke="rgb(219,219,141)" stroke-width="1.5" opacity="0.7"/><polyline points="369,157 376,149 383,140 390,131 397,120 404,108 411,96 418,82 425,67" fill="none" stroke="rgb(23,190,207)" stroke-width="1.5" opacity="0.7"/><polyline points="369,157 376,149 383,141 390,131 397,120 404,109 411,96 418,83 425,68" fill="none" stroke="rgb(158,218,229)" stroke-width="1.5" opacity="0.7"/><polyline points="369,159 376,151 383,143 390,134 397,124 404,113 411,105 418,92 425,89 432,87 439,72" fill="none" stroke="rgb(31,119,180)" stroke-width="1.5" opacity="0.7"/><polyline points="376,155 383,147 390,138 397,129 404,118 411,106 418,93 425,79 432,65" fill="none" stroke="rgb(175,199,232)" stroke-width="1.5" opacity="0.7"/><polyline points="376,154 383,146 390,138 397,128 404,119 411,109 418,97 425,83 432,74 439,65" fill="none" stroke="rgb(255,127,14)" stroke-width="1.5" opacity="0.7"/><polyline points="376,154 383,146 390,137 397,127 404,117 411,106 418,93 425,79 432,64" fill="none" stroke="rgb(255,187,120)" stroke-width="1.5" opacity="0.7"/><polyline points="376,155 383,147 390,138 397,128 404,117 411,106 418,93 425,79 432,64" fill="none" stroke="rgb(44,160,44)" stroke-width="1.5" opacity="0.7"/><polyline points="376,153 383,144 390,135 397,126 404,118 411,110 418,105 425,101 432,100 439,87 446,87 453,87 460,87" fill="none" stroke="rgb(152,223,138)" stroke-width="1.5" opacity="0.7"/><polyline points="383,160 390,152 397,145 404,137 411,128 418,120 425,109 432,102 439,90 446,78 453,67" fill="none" stroke="rgb(214,39,40)" stroke-width="1.5" opacity="0.7"/><polyline points="383,160 390,152 397,145 404,137 411,128 418,120 425,113 432,106 439,101 446,96 453,92 460,88" fill="none" stroke="rgb(255,152,150)" stroke-width="1.5" opacity="0.7"/><polyline points="383,159 390,151 397,144 404,135 411,127 418,116 425,104 432,97 439,84 446,69" fill="none" stroke="rgb(148,103,189)" stroke-width="1.5" opacity="0.7"/><polyline points="383,156 390,148 397,139 404,130 411,119 418,108 425,96 432,84 439,71" fill="none" stroke="rgb(197,176,213)" stroke-width="1.5" opacity="0.7"/><polyline points="390,156 397,147 404,138 411,129 418,118 425,106 432,93 439,79 446,64" fill="none" stroke="rgb(140,86,75)" stroke-width="1.5" opacity="0.7"/><polyline points="390,154 397,145 404,136 411,126 418,115 425,103 432,90 439,76 446,60" fill="none" stroke="rgb(196,156,148)" stroke-width="1.5" opacity="0.7"/><polyline points="390,155 397,146 404,137 411,127 418,116 425,104 432,91 439,77 446,62" fill="none" stroke="rgb(227,119,194)" stroke-width="1.5" opacity="0.7"/><polyline points="397,154 404,145 411,136 418,126 425,115 432,103 439,90 446,76 453,60" fill="none" stroke="rgb(247,182,210)" stroke-width="1.5" opacity="0.7"/><polyline points="397,153 404,145 411,135 418,125 425,114 432,102 439,89 446,76 453,60" fill="none" stroke="rgb(127,127,127)" stroke-width="1.5" opacity="0.7"/><polyline points="404,157 411,149 418,142 425,135 432,128 439,123 446,119 453,114 460,110" fill="none" stroke="rgb(199,199,199)" stroke-width="1.5" opacity="0.7"/><polyline points="404,159 411,151 418,142 425,133 432,123 439,111 446,99 453,85 460,71" fill="none" stroke="rgb(188,189,34)" stroke-width="1.5" opacity="0.7"/><polyline points="404,159 411,151 418,143 425,133 432,123 439,112 446,100 453,86 460,72" fill="none" stroke="rgb(219,219,141)" stroke-width="1.5" opacity="0.7"/><polyline points="404,160 411,152 418,143 425,134 432,123 439,112 446,100 453,87 460,72" fill="none" stroke="rgb(23,190,207)" stroke-width="1.5" opacity="0.7"/><polyline points="404,160 411,152 418,143 425,134 432,123 439,112 446,100 453,86 460,72" fill="none" stroke="rgb(158,218,229)" stroke-width="1.5" opacity="0.7"/><polyline points="404,158 411,151 418,145 425,138 432,131 439,126 446,122 453,118 460,113" fill="none" stroke="rgb(31,119,180)" stroke-width="1.5" opacity="0.7"/><polyline points="404,156 411,147 418,139 425,129 432,118 439,107 446,94 453,81 460,66" fill="none" stroke="rgb(175,199,232)" stroke-width="1.5" opacity="0.7"/><polyline points="404,155 411,147 418,138 425,128 432,117 439,106 446,95 453,84 460,75" fill="none" stroke="rgb(255,127,14)" stroke-width="1.5" opacity="0.7"/><polyline points="404,159 411,151 418,143 425,134 432,124 439,114 446,103 453,92 460,84" fill="none" stroke="rgb(255,187,120)" stroke-width="1.5" opacity="0.7"/><polyline points="404,155 411,147 418,138 425,128 432,117 439,105 446,93 453,79 460,64" fill="none" stroke="rgb(44,160,44)" stroke-width="1.5" opacity="0.7"/><polyline points="404,155 411,147 418,138 425,128 432,117 439,106 446,93 453,79 460,64" fill="none" stroke="rgb(152,223,138)" stroke-width="1.5" opacity="0.7"/><polyline points="404,157 411,149 418,141 425,132 432,122 439,111 446,100 453,89 460,81" fill="none" stroke="rgb(214,39,40)" stroke-width="1.5" opacity="0.7"/><polyline points="404,158 411,150 418,142 425,133 432,123 439,113 446,102 453,91 460,82" fill="none" stroke="rgb(255,152,150)" stroke-width="1.5" opacity="0.7"/><polyline points="411,246 418,246 425,245 432,244 439,243 446,242 453,240 460,239" fill="none" stroke="rgb(148,103,189)" stroke-width="1.5" opacity="0.7"/><polyline points="411,156 418,149 425,143 432,137 439,131 446,122 453,113 460,104" fill="none" stroke="rgb(197,176,213)" stroke-width="1.5" opacity="0.7"/><polyline points="432,237 439,237 446,237 453,237 460,237" fill="none" stroke="rgb(140,86,75)" stroke-width="1.5" opacity="0.7"/><polyline points="432,251 439,251 446,250 453,249 460,249" fill="none" stroke="rgb(196,156,148)" stroke-width="1.5" opacity="0.7"/><polyline points="432,158 439,151 446,142 453,133 460,123" fill="none" stroke="rgb(227,119,194)" stroke-width="1.5" opacity="0.7"/><polyline points="432,160 439,153 446,145 453,137 460,128" fill="none" stroke="rgb(247,182,210)" stroke-width="1.5" opacity="0.7"/><polyline points="432,159 439,152 446,144 453,135 460,125" fill="none" stroke="rgb(127,127,127)" stroke-width="1.5" opacity="0.7"/><polyline points="432,156 439,148 446,139 453,129 460,118" fill="none" stroke="rgb(199,199,199)" stroke-width="1.5" opacity="0.7"/><polyline points="432,156 439,147 446,138 453,129 460,118" fill="none" stroke="rgb(188,189,34)" stroke-width="1.5" opacity="0.7"/><polyline points="432,156 439,147 446,138 453,129 460,118" fill="none" stroke="rgb(219,219,141)" stroke-width="1.5" opacity="0.7"/><polyline points="432,158 439,150 446,141 453,132 460,122" fill="none" stroke="rgb(23,190,207)" stroke-width="1.5" opacity="0.7"/><polyline points="432,156 439,147 446,138 453,129 460,118" fill="none" stroke="rgb(158,218,229)" stroke-width="1.5" opacity="0.7"/><polyline points="432,157 439,150 446,141 453,131 460,121" fill="none" stroke="rgb(31,119,180)" stroke-width="1.5" opacity="0.7"/><polyline points="432,156 439,148 446,140 453,130 460,120" fill="none" stroke="rgb(175,199,232)" stroke-width="1.5" opacity="0.7"/><polyline points="432,158 439,150 446,142 453,134 460,124" fill="none" stroke="rgb(255,127,14)" stroke-width="1.5" opacity="0.7"/><polyline points="432,154 439,146 446,137 453,127 460,116" fill="none" stroke="rgb(255,187,120)" stroke-width="1.5" opacity="0.7"/><polyline points="432,154 439,146 446,137 453,127 460,116" fill="none" stroke="rgb(44,160,44)" stroke-width="1.5" opacity="0.7"/><polyline points="432,154 439,146 446,137 453,127 460,117" fill="none" stroke="rgb(152,223,138)" stroke-width="1.5" opacity="0.7"/><polyline points="432,154 439,145 446,136 453,126 460,116" fill="none" stroke="rgb(214,39,40)" stroke-width="1.5" opacity="0.7"/><polyline points="432,152 439,143 446,134 453,124 460,113" fill="none" stroke="rgb(255,152,150)" stroke-width="1.5" opacity="0.7"/><polyline points="432,152 439,143 446,133 453,123 460,111" fill="none" stroke="rgb(148,103,189)" stroke-width="1.5" opacity="0.7"/><polyline points="432,154 439,146 446,137 453,127 460,116" fill="none" stroke="rgb(197,176,213)" stroke-width="1.5" opacity="0.7"/><polyline points="432,154 439,146 446,136 453,126 460,115" fill="none" stroke="rgb(140,86,75)" stroke-width="1.5" opacity="0.7"/><polyline points="432,156 439,148 446,139 453,129 460,118" fill="none" stroke="rgb(196,156,148)" stroke-width="1.5" opacity="0.7"/><polyline points="432,155 439,147 446,138 453,129 460,118" fill="none" stroke="rgb(227,119,194)" stroke-width="1.5" opacity="0.7"/><polyline points="432,155 439,147 446,138 453,128 460,117" fill="none" stroke="rgb(247,182,210)" stroke-width="1.5" opacity="0.7"/><polyline points="432,156 439,148 446,139 453,129 460,119" fill="none" stroke="rgb(127,127,127)" stroke-width="1.5" opacity="0.7"/><polyline points="432,157 439,149 446,140 453,131 460,120" fill="none" stroke="rgb(199,199,199)" stroke-width="1.5" opacity="0.7"/><polyline points="432,159 439,151 446,143 453,133 460,123" fill="none" stroke="rgb(188,189,34)" stroke-width="1.5" opacity="0.7"/><polyline points="432,155 439,147 446,138 453,129 460,118" fill="none" stroke="rgb(219,219,141)" stroke-width="1.5" opacity="0.7"/><polyline points="432,156 439,148 446,139 453,130 460,121" fill="none" stroke="rgb(23,190,207)" stroke-width="1.5" opacity="0.7"/><polyline points="432,156 439,148 446,139 453,129 460,118" fill="none" stroke="rgb(158,218,229)" stroke-width="1.5" opacity="0.7"/><polyline points="432,155 439,147 446,141 453,132 460,121" fill="none" stroke="rgb(31,119,180)" stroke-width="1.5" opacity="0.7"/><polyline points="432,157 439,149 446,141 453,131 460,121" fill="none" stroke="rgb(175,199,232)" stroke-width="1.5" opacity="0.7"/><polyline points="432,157 439,150 446,142 453,133 460,123" fill="none" stroke="rgb(255,127,14)" stroke-width="1.5" opacity="0.7"/><polyline points="432,156 439,148 446,139 453,130 460,119" fill="none" stroke="rgb(255,187,120)" stroke-width="1.5" opacity="0.7"/><polyline points="432,156 439,148 446,140 453,130 460,120" fill="none" stroke="rgb(44,160,44)" stroke-width="1.5" opacity="0.7"/><polyline points="432,158 439,151 446,142 453,134 460,123" fill="none" stroke="rgb(152,223,138)" stroke-width="1.5" opacity="0.7"/><polyline points="432,158 439,150 446,144 453,135 460,126" fill="none" stroke="rgb(214,39,40)" stroke-width="1.5" opacity="0.7"/><polyline points="432,155 439,147 446,138 453,129 460,119" fill="none" stroke="rgb(255,152,150)" stroke-width="1.5" opacity="0.7"/><polyline points="432,155 439,147 446,138 453,128 460,117" fill="none" stroke="rgb(148,103,189)" stroke-width="1.5" opacity="0.7"/><polyline points="432,157 439,149 446,141 453,133 460,124" fill="none" stroke="rgb(197,176,213)" stroke-width="1.5" opacity="0.7"/><polyline points="432,155 439,147 446,138 453,129 460,119" fill="none" stroke="rgb(140,86,75)" stroke-width="1.5" opacity="0.7"/><polyline points="432,157 439,149 446,141 453,133 460,122" fill="none" stroke="rgb(196,156,148)" stroke-width="1.5" opacity="0.7"/><polyline points="432,157 439,149 446,141 453,133 460,123" fill="none" stroke="rgb(227,119,194)" stroke-width="1.5" opacity="0.7"/><polyline points="432,157 439,149 446,141 453,132 460,122" fill="none" stroke="rgb(247,182,210)" stroke-width="1.5" opacity="0.7"/><polyline points="439,227 446,227 453,225 460,222" fill="none" stroke="rgb(127,127,127)" stroke-width="1.5" opacity="0.7"/><polyline points="439,154 446,146 453,137 460,127" fill="none" stroke="rgb(199,199,199)" stroke-width="1.5" opacity="0.7"/><polyline points="439,153 446,144 453,135 460,125" fill="none" stroke="rgb(188,189,34)" stroke-width="1.5" opacity="0.7"/><polyline points="439,160 446,154 453,148 460,140" fill="none" stroke="rgb(219,219,141)" stroke-width="1.5" opacity="0.7"/><polyline points="439,155 446,147 453,139 460,130" fill="none" stroke="rgb(23,190,207)" stroke-width="1.5" opacity="0.7"/><polyline points="439,154 446,146 453,137 460,127" fill="none" stroke="rgb(158,218,229)" stroke-width="1.5" opacity="0.7"/><polyline points="439,154 446,146 453,137 460,127" fill="none" stroke="rgb(31,119,180)" stroke-width="1.5" opacity="0.7"/><polyline points="439,156 446,156 453,148 460,139" fill="none" stroke="rgb(175,199,232)" stroke-width="1.5" opacity="0.7"/><polyline points="439,153 446,145 453,137 460,128" fill="none" stroke="rgb(255,127,14)" stroke-width="1.5" opacity="0.7"/><polyline points="439,155 446,147 453,138 460,128" fill="none" stroke="rgb(255,187,120)" stroke-width="1.5" opacity="0.7"/><polyline points="446,159 453,152 460,145" fill="none" stroke="rgb(44,160,44)" stroke-width="1.5" opacity="0.7"/><polyline points="446,159 453,151 460,142" fill="none" stroke="rgb(152,223,138)" stroke-width="1.5" opacity="0.7"/><polyline points="446,153 453,145 460,136" fill="none" stroke="rgb(214,39,40)" stroke-width="1.5" opacity="0.7"/><polyline points="446,158 453,153 460,148" fill="none" stroke="rgb(255,152,150)" stroke-width="1.5" opacity="0.7"/><polyline points="446,159 453,154 460,146" fill="none" stroke="rgb(148,103,189)" stroke-width="1.5" opacity="0.7"/><polyline points="453,243 460,243" fill="none" stroke="rgb(197,176,213)" stroke-width="1.5" opacity="0.7"/><polyline points="453,153 460,145" fill="none" stroke="rgb(140,86,75)" stroke-width="1.5" opacity="0.7"/><polyline points="453,152 460,144" fill="none" stroke="rgb(196,156,148)" stroke-width="1.5" opacity="0.7"/><polyline points="453,156 460,148" fill="none" stroke="rgb(227,119,194)" stroke-width="1.5" opacity="0.7"/><polyline points="453,154 460,145" fill="none" stroke="rgb(247,182,210)" stroke-width="1.5" opacity="0.7"/><polyline points="453,157 460,149" fill="none" stroke="rgb(127,127,127)" stroke-width="1.5" opacity="0.7"/><polyline points="460,155" fill="none" stroke="rgb(199,199,199)" stroke-width="1.5" opacity="0.7"/><polyline points="460,152" fill="none" stroke="rgb(188,189,34)" stroke-width="1.5" opacity="0.7"/><polyline points="460,152" fill="none" stroke="rgb(219,219,141)" stroke-width="1.5" opacity="0.7"/><polyline points="460,159" fill="none" stroke="rgb(23,190,207)" stroke-width="1.5" opacity="0.7"/><polyline points="460,155" fill="none" stroke="rgb(158,218,229)" stroke-width="1.5" opacity="0.7"/><polyline points="460,154" fill="none" stroke="rgb(31,119,180)" stroke-width="1.5" opacity="0.7"/></svg>