<svg width="500" height="300" viewBox="0 0 500 300" xmlns="http://www.w3.org/2000/svg"><rect width="500" height="300" fill="white"/><text x="250" y="16" text-anchor="middle" font-size="14" font-family="sans-serif">newtonian_particles mass</text><text x="250" y="295" text-anchor="middle" font-size="10" font-family="sans-serif">time</text><text x="10" y="150" text-anchor="middle" font-size="10" font-family="sans-serif" transform="rotate(-90 10 150)">mass</text><polyline points="40,233 47,233 54,233 61,233 68,233 75,233 82,233 89,233 96,233 103,233 110,233 117,233 124,233 131,233 138,233 145,233 152,233 159,233 166,233 173,233 180,233 187,233 194,233 201,233 208,233 215,233 222,233 229,233 236,233 243,233 250,233 257,233 264,233 271,233 278,233 285,233 292,233 299,233 306,233 313,233 320,233 327,233 334,233 341,233 348,233 355,233 362,233 369,233 376,233 383,233 390,233 397,233 404,233 411,233 418,233 425,233 432,233 439,233 446,233 453,233 460,233" fill="none" stroke="rgb(31,119,180)" stroke-width="1.5" opacity="0.7"/><polyline points="47,60 54,60 61,60 68,60 75,60 82,60 89,60 96,60 103,60 110,60 117,60 124,60 131,60 138,60 145,60 152,60 159,60 166,60 173,60 180,60 187,60 194,60 201,60 208,60 215,60 222,60 229,60 236,60 243,60 250,60 257,60 264,60 271,60 278,60 285,60 292,60 299,60 306,60 313,60 320,60 327,60 334,60 341,60 348,60 355,60 362,60 369,60 376,60 383,60 390,60 397,60 404,60 411,60 418,60 425,60 432,60 439,60 446,60 453,60 460,60" fill="none" stroke="rgb(175,199,232)" stroke-width="1.5" opacity="0.7"/><polyline points="145,234 152,234 159,234 166,234 173,234 180,234 187,234 194,234 201,234 208,234 215,234 222,234 229,234 236,234 243,234 250,234 257,234 264,234 271,234 278,234 285,234 292,234 299,234 306,234 313,234 320,234 327,234 334,234 341,234 348,234 355,234 362,234 369,234 376,234 383,234 390,234 397,234 404,234 411,234 418,234 425,234 432,234 439,234 446,234 453,234 460,234" fill="none" stroke="rgb(255,127,14)" stroke-width="1.5" opacity="0.7"/><polyline points="166,133 173,133 180,133 187,133 194,133 201,133 208,133 215,133 222,133 229,133 236,133 243,133 250,133 257,133 264,133 271,133 278,133 285,133 292,133 299,133 306,133 313,133 320,133 327,133 334,133 341,133 348,133 355,133 362,133 369,133 376,133 383,133 390,133 397,133 404,133 411,133 418,133 425,133 432,133 439,133 446,133 453,133 460,133" fill="none" stroke="rgb(255,187,120)" stroke-width="1.5" opacity="0.7"/><polyline points="201,208 208,208 215,208 222,208 229,208 236,208 243,208 250,208 257,208 264,208 271,208 278,208 285,208 292,208 299,208 306,208 313,208 320,208 327,208 334,208 341,208 348,208 355,208 362,208 369,208 376,208 383,208 390,208 397,208 404,208 411,208 418,208 425,208 432,208 439,208 446,208 453,208 460,208" fill="none" stroke="rgb(44,160,44)" stroke-width="1.5" opacity="0.7"/><polyline points="313,236 320,236 327,236 334,236 341,236 348,236 355,236 362,236 369,236 376,236 383,236 390,236 397,236 404,236 411,236 418,236 425,236 432,236 439,236 446,236 453,236 460,236" fill="none" stroke="rgb(152,223,138)" stroke-width="1.5" opacity="0.7"/><polyline points="327,214 334,214 341,214 348,214 355,214 362,214 369,214 376,214 383,214 390,214 397,214 404,214 411,214 418,214 425,214 432,214 439,214 446,214 453,214 460,214" fill="none" stroke="rgb(214,39,40)" stroke-width="1.5" opacity="0.7"/><polyline points="383,124 390,124 397,124 404,124 411,124 418,124 425,124 432,124 439,124 446,124 453,124 460,124" fill="none" stroke="rgb(255,152,150)" stroke-width="1.5" opacity="0.7"/><polyline points="411,122 418,122 425,122 432,122 439,122 446,122 453,122 460,122" fill="none" stroke="rgb(148,103,189)" stroke-width="1.5" opacity="0.7"/><polyline points="460,78" fill="none" stroke="rgb(197,176,213)" stroke-width="1.5" opacity="0.7"/></svg>