<svg xmlns="http://www.w3.org/2000/svg" width="840" height="112"><text x="0" y="12" font-size="9" font-family="sans-serif" fill="gray">t=0</text><g transform="translate(0, 14)"><svg width="80" height="96" viewBox="0 0 80 96" xmlns="http://www.w3.org/2000/svg"><rect x="0" y="0" width="16" height="16" fill="rgb(68,1,84)"/><rect x="16" y="0" width="16" height="16" fill="rgb(68,1,84)"/><rect x="32" y="0" width="16" height="16" fill="rgb(68,1,84)"/><rect x="48" y="0" width="16" height="16" fill="rgb(68,1,84)"/><rect x="64" y="0" width="16" height="16" fill="rgb(68,1,84)"/><rect x="0" y="16" width="16" height="16" fill="rgb(68,1,84)"/><rect x="16" y="16" width="16" height="16" fill="rgb(68,1,84)"/><rect x="32" y="16" width="16" height="16" fill="rgb(68,1,84)"/><rect x="48" y="16" width="16" height="16" fill="rgb(68,1,84)"/><rect x="64" y="16" width="16" height="16" fill="rgb(68,1,84)"/><rect x="0" y="32" width="16" height="16" fill="rgb(68,1,84)"/><rect x="16" y="32" width="16" height="16" fill="rgb(68,1,84)"/><rect x="32" y="32" width="16" height="16" fill="rgb(68,1,84)"/><rect x="48" y="32" width="16" height="16" fill="rgb(68,1,84)"/><rect x="64" y="32" width="16" height="16" fill="rgb(68,1,84)"/><rect x="0" y="48" width="16" height="16" fill="rgb(68,1,84)"/><rect x="16" y="48" width="16" height="16" fill="rgb(68,1,84)"/><rect x="32" y="48" width="16" height="16" fill="rgb(68,1,84)"/><rect x="48" y="48" width="16" height="16" fill="rgb(68,1,84)"/><rect x="64" y="48" width="16" height="16" fill="rgb(68,1,84)"/><rect x="0" y="64" width="16" height="16" fill="rgb(68,1,84)"/><rect x="16" y="64" width="16" height="16" fill="rgb(68,1,84)"/><rect x="32" y="64" width="16" height="16" fill="rgb(68,1,84)"/><rect x="48" y="64" width="16" height="16" fill="rgb(68,1,84)"/><rect x="64" y="64" width="16" height="16" fill="rgb(68,1,84)"/><rect x="0" y="80" width="16" height="16" fill="rgb(68,1,84)"/><rect x="16" y="80" width="16" height="16" fill="rgb(68,1,84)"/><rect x="32" y="80" width="16" height="16" fill="rgb(68,1,84)"/><rect x="48" y="80" width="16" height="16" fill="rgb(68,1,84)"/><rect x="64" y="80" width="16" height="16" fill="rgb(68,1,84)"/></svg></g><text x="84" y="12" font-size="9" font-family="sans-serif" fill="gray">t=7</text><g transform="translate(84, 14)"><svg width="80" height="96" viewBox="0 0 80 96" xmlns="http://www.w3.org/2000/svg"><rect x="0" y="0" width="16" height="16" fill="rgb(68,1,84)"/><rect x="16" y="0" width="16" height="16" fill="rgb(67,3,85)"/><rect x="32" y="0" width="16" height="16" fill="rgb(64,15,89)"/><rect x="48" y="0" width="16" height="16" fill="rgb(63,19,91)"/><rect x="64" y="0" width="16" height="16" fill="rgb(63,21,91)"/><rect x="0" y="16" width="16" height="16" fill="rgb(68,1,84)"/><rect x="16" y="16" width="16" height="16" fill="rgb(68,1,84)"/><rect x="32" y="16" width="16" height="16" fill="rgb(68,1,84)"/><rect x="48" y="16" width="16" height="16" fill="rgb(68,1,84)"/><rect x="64" y="16" width="16" height="16" fill="rgb(68,1,84)"/><rect x="0" y="32" width="16" height="16" fill="rgb(68,1,84)"/><rect x="16" y="32" width="16" height="16" fill="rgb(68,1,84)"/><rect x="32" y="32" width="16" height="16" fill="rgb(68,1,84)"/><rect x="48" y="32" width="16" height="16" fill="rgb(68,1,84)"/><rect x="64" y="32" width="16" height="16" fill="rgb(68,1,84)"/><rect x="0" y="48" width="16" height="16" fill="rgb(68,1,84)"/><rect x="16" y="48" width="16" height="16" fill="rgb(68,1,84)"/><rect x="32" y="48" width="16" height="16" fill="rgb(68,1,84)"/><rect x="48" y="48" width="16" height="16" fill="rgb(68,1,84)"/><rect x="64" y="48" width="16" height="16" fill="rgb(68,1,84)"/><rect x="0" y="64" width="16" height="16" fill="rgb(68,1,84)"/><rect x="16" y="64" width="16" height="16" fill="rgb(68,1,84)"/><rect x="32" y="64" width="16" height="16" fill="rgb(68,1,84)"/><rect x="48" y="64" width="16" height="16" fill="rgb(68,1,84)"/><rect x="64" y="64" width="16" height="16" fill="rgb(68,1,84)"/><rect x="0" y="80" width="16" height="16" fill="rgb(68,1,84)"/><rect x="16" y="80" width="16" height="16" fill="rgb(68,1,84)"/><rect x="32" y="80" width="16" height="16" fill="rgb(68,1,84)"/><rect x="48" y="80" width="16" height="16" fill="rgb(68,1,84)"/><rect x="64" y="80" width="16" height="16" fill="rgb(68,1,84)"/></svg></g><text x="168" y="12" font-size="9" font-family="sans-serif" fill="gray">t=14</text><g transform="translate(168, 14)"><svg width="80" height="96" viewBox="0 0 80 96" xmlns="http://www.w3.org/2000/svg"><rect x="0" y="0" width="16" height="16" fill="rgb(68,1,84)"/><rect x="16" y="0" width="16" height="16" fill="rgb(68,1,84)"/><rect x="32" y="0" width="16" height="16" fill="rgb(59,37,98)"/><rect x="48" y="0" width="16" height="16" fill="rgb(56,49,102)"/><rect x="64" y="0" width="16" height="16" fill="rgb(54,55,105)"/><rect x="0" y="16" width="16" height="16" fill="rgb(68,1,84)"/><rect x="16" y="16" width="16" height="16" fill="rgb(68,1,84)"/><rect x="32" y="16" width="16" height="16" fill="rgb(68,1,84)"/><rect x="48" y="16" width="16" height="16" fill="rgb(68,1,84)"/><rect x="64" y="16" width="16" height="16" fill="rgb(68,1,84)"/><rect x="0" y="32" width="16" height="16" fill="rgb(68,1,84)"/><rect x="16" y="32" width="16" height="16" fill="rgb(68,1,84)"/><rect x="32" y="32" width="16" height="16" fill="rgb(68,1,84)"/><rect x="48" y="32" width="16" height="16" fill="rgb(68,1,84)"/><rect x="64" y="32" width="16" height="16" fill="rgb(68,1,84)"/><rect x="0" y="48" width="16" height="16" fill="rgb(68,1,84)"/><rect x="16" y="48" width="16" height="16" fill="rgb(68,1,84)"/><rect x="32" y="48" width="16" height="16" fill="rgb(68,1,84)"/><rect x="48" y="48" width="16" height="16" fill="rgb(68,1,84)"/><rect x="64" y="48" width="16" height="16" fill="rgb(68,1,84)"/><rect x="0" y="64" width="16" height="16" fill="rgb(68,1,84)"/><rect x="16" y="64" width="16" height="16" fill="rgb(68,1,84)"/><rect x="32" y="64" width="16" height="16" fill="rgb(68,1,84)"/><rect x="48" y="64" width="16" height="16" fill="rgb(68,1,84)"/><rect x="64" y="64" width="16" height="16" fill="rgb(68,1,84)"/><rect x="0" y="80" width="16" height="16" fill="rgb(68,1,84)"/><rect x="16" y="80" width="16" height="16" fill="rgb(68,1,84)"/><rect x="32" y="80" width="16" height="16" fill="rgb(68,1,84)"/><rect x="48" y="80" width="16" height="16" fill="rgb(68,1,84)"/><rect x="64" y="80" width="16" height="16" fill="rgb(68,1,84)"/></svg></g><text x="252" y="12" font-size="9" font-family="sans-serif" fill="gray">t=21</text><g transform="translate(252, 14)"><svg width="80" height="96" viewBox="0 0 80 96" xmlns="http://www.w3.org/2000/svg"><rect x="0" y="0" width="16" height="16" fill="rgb(68,1,84)"/><rect x="16" y="0" width="16" height="16" fill="rgb(68,1,84)"/><rect x="32" y="0" width="16" height="16" fill="rgb(52,63,108)"/><rect x="48" y="0" width="16" height="16" fill="rgb(44,97,121)"/><rect x="64" y="0" width="16" height="16" fill="rgb(41,112,127)"/><rect x="0" y="16" width="16" height="16" fill="rgb(68,1,84)"/><rect x="16" y="16" width="16" height="16" fill="rgb(68,1,84)"/><rect x="32" y="16" width="16" height="16" fill="rgb(68,1,84)"/><rect x="48" y="16" width="16" height="16" fill="rgb(68,1,84)"/><rect x="64" y="16" width="16" height="16" fill="rgb(68,1,84)"/><rect x="0" y="32" width="16" height="16" fill="rgb(68,1,84)"/><rect x="16" y="32" width="16" height="16" fill="rgb(68,1,84)"/><rect x="32" y="32" width="16" height="16" fill="rgb(68,1,84)"/><rect x="48" y="32" width="16" height="16" fill="rgb(68,1,84)"/><rect x="64" y="32" width="16" height="16" fill="rgb(68,1,84)"/><rect x="0" y="48" width="16" height="16" fill="rgb(68,1,84)"/><rect x="16" y="48" width="16" height="16" fill="rgb(68,1,84)"/><rect x="32" y="48" width="16" height="16" fill="rgb(68,1,84)"/><rect x="48" y="48" width="16" height="16" fill="rgb(68,1,84)"/><rect x="64" y="48" width="16" height="16" fill="rgb(68,1,84)"/><rect x="0" y="64" width="16" height="16" fill="rgb(68,1,84)"/><rect x="16" y="64" width="16" height="16" fill="rgb(68,1,84)"/><rect x="32" y="64" width="16" height="16" fill="rgb(68,1,84)"/><rect x="48" y="64" width="16" height="16" fill="rgb(68,1,84)"/><rect x="64" y="64" width="16" height="16" fill="rgb(68,1,84)"/><rect x="0" y="80" width="16" height="16" fill="rgb(68,1,84)"/><rect x="16" y="80" width="16" height="16" fill="rgb(68,1,84)"/><rect x="32" y="80" width="16" height="16" fill="rgb(68,1,84)"/><rect x="48" y="80" width="16" height="16" fill="rgb(68,1,84)"/><rect x="64" y="80" width="16" height="16" fill="rgb(68,1,84)"/></svg></g><text x="336" y="12" font-size="9" font-family="sans-serif" fill="gray">t=28</text><g transform="translate(336, 14)"><svg width="80" height="96" viewBox="0 0 80 96" xmlns="http://www.w3.org/2000/svg"><rect x="0" y="0" width="16" height="16" fill="rgb(68,1,84)"/><rect x="16" y="0" width="16" height="16" fill="rgb(68,1,84)"/><rect x="32" y="0" width="16" height="16" fill="rgb(58,39,98)"/><rect x="48" y="0" width="16" height="16" fill="rgb(53,153,130)"/><rect x="64" y="0" width="16" height="16" fill="rgb(117,177,100)"/><rect x="0" y="16" width="16" height="16" fill="rgb(68,1,84)"/><rect x="16" y="16" width="16" height="16" fill="rgb(68,1,84)"/><rect x="32" y="16" width="16" height="16" fill="rgb(68,1,84)"/><rect x="48" y="16" width="16" height="16" fill="rgb(68,1,84)"/><rect x="64" y="16" width="16" height="16" fill="rgb(68,1,84)"/><rect x="0" y="32" width="16" height="16" fill="rgb(68,1,84)"/><rect x="16" y="32" width="16" height="16" fill="rgb(68,1,84)"/><rect x="32" y="32" width="16" height="16" fill="rgb(68,1,84)"/><rect x="48" y="32" width="16" height="16" fill="rgb(68,1,84)"/><rect x="64" y="32" width="16" height="16" fill="rgb(68,1,84)"/><rect x="0" y="48" width="16" height="16" fill="rgb(68,1,84)"/><rect x="16" y="48" width="16" height="16" fill="rgb(68,1,84)"/><rect x="32" y="48" width="16" height="16" fill="rgb(68,1,84)"/><rect x="48" y="48" width="16" height="16" fill="rgb(68,1,84)"/><rect x="64" y="48" width="16" height="16" fill="rgb(68,1,84)"/><rect x="0" y="64" width="16" height="16" fill="rgb(68,1,84)"/><rect x="16" y="64" width="16" height="16" fill="rgb(68,1,84)"/><rect x="32" y="64" width="16" height="16" fill="rgb(68,1,84)"/><rect x="48" y="64" width="16" height="16" fill="rgb(68,1,84)"/><rect x="64" y="64" width="16" height="16" fill="rgb(68,1,84)"/><rect x="0" y="80" width="16" height="16" fill="rgb(68,1,84)"/><rect x="16" y="80" width="16" height="16" fill="rgb(68,1,84)"/><rect x="32" y="80" width="16" height="16" fill="rgb(68,1,84)"/><rect x="48" y="80" width="16" height="16" fill="rgb(68,1,84)"/><rect x="64" y="80" width="16" height="16" fill="rgb(68,1,84)"/></svg></g><text x="420" y="12" font-size="9" font-family="sans-serif" fill="gray">t=35</text><g transform="translate(420, 14)"><svg width="80" height="96" viewBox="0 0 80 96" xmlns="http://www.w3.org/2000/svg"><rect x="0" y="0" width="16" height="16" fill="rgb(68,1,84)"/><rect x="16" y="0" width="16" height="16" fill="rgb(68,1,84)"/><rect x="32" y="0" width="16" height="16" fill="rgb(68,1,84)"/><rect x="48" y="0" width="16" height="16" fill="rgb(68,1,84)"/><rect x="64" y="0" width="16" height="16" fill="rgb(253,231,37)"/><rect x="0" y="16" width="16" height="16" fill="rgb(68,1,84)"/><rect x="16" y="16" width="16" height="16" fill="rgb(68,1,84)"/><rect x="32" y="16" width="16" height="16" fill="rgb(68,1,84)"/><rect x="48" y="16" width="16" height="16" fill="rgb(68,1,84)"/><rect x="64" y="16" width="16" height="16" fill="rgb(68,1,84)"/><rect x="0" y="32" width="16" height="16" fill="rgb(68,1,84)"/><rect x="16" y="32" width="16" height="16" fill="rgb(68,1,84)"/><rect x="32" y="32" width="16" height="16" fill="rgb(68,1,84)"/><rect x="48" y="32" width="16" height="16" fill="rgb(68,1,84)"/><rect x="64" y="32" width="16" height="16" fill="rgb(68,1,84)"/><rect x="0" y="48" width="16" height="16" fill="rgb(68,1,84)"/><rect x="16" y="48" width="16" height="16" fill="rgb(68,1,84)"/><rect x="32" y="48" width="16" height="16" fill="rgb(68,1,84)"/><rect x="48" y="48" width="16" height="16" fill="rgb(68,1,84)"/><rect x="64" y="48" width="16" height="16" fill="rgb(68,1,84)"/><rect x="0" y="64" width="16" height="16" fill="rgb(68,1,84)"/><rect x="16" y="64" width="16" height="16" fill="rgb(68,1,84)"/><rect x="32" y="64" width="16" height="16" fill="rgb(68,1,84)"/><rect x="48" y="64" width="16" height="16" fill="rgb(68,1,84)"/><rect x="64" y="64" width="16" height="16" fill="rgb(68,1,84)"/><rect x="0" y="80" width="16" height="16" fill="rgb(68,1,84)"/><rect x="16" y="80" width="16" height="16" fill="rgb(68,1,84)"/><rect x="32" y="80" width="16" height="16" fill="rgb(68,1,84)"/><rect x="48" y="80" width="16" height="16" fill="rgb(68,1,84)"/><rect x="64" y="80" width="16" height="16" fill="rgb(68,1,84)"/></svg></g><text x="504" y="12" font-size="9" font-family="sans-serif" fill="gray">t=42</text><g transform="translate(504, 14)"><svg width="80" height="96" viewBox="0 0 80 96" xmlns="http://www.w3.org/2000/svg"><rect x="0" y="0" width="16" height="16" fill="rgb(68,1,84)"/><rect x="16" y="0" width="16" height="16" fill="rgb(68,1,84)"/><rect x="32" y="0" width="16" height="16" fill="rgb(68,1,84)"/><rect x="48" y="0" width="16" height="16" fill="rgb(68,1,84)"/><rect x="64" y="0" width="16" height="16" fill="rgb(68,1,84)"/><rect x="0" y="16" width="16" height="16" fill="rgb(68,1,84)"/><rect x="16" y="16" width="16" height="16" fill="rgb(68,1,84)"/><rect x="32" y="16" width="16" height="16" fill="rgb(68,1,84)"/><rect x="48" y="16" width="16" height="16" fill="rgb(68,1,84)"/><rect x="64" y="16" width="16" height="16" fill="rgb(68,1,84)"/><rect x="0" y="32" width="16" height="16" fill="rgb(68,1,84)"/><rect x="16" y="32" width="16" height="16" fill="rgb(68,1,84)"/><rect x="32" y="32" width="16" height="16" fill="rgb(68,1,84)"/><rect x="48" y="32" width="16" height="16" fill="rgb(68,1,84)"/><rect x="64" y="32" width="16" height="16" fill="rgb(68,1,84)"/><rect x="0" y="48" width="16" height="16" fill="rgb(68,1,84)"/><rect x="16" y="48" width="16" height="16" fill="rgb(68,1,84)"/><rect x="32" y="48" width="16" height="16" fill="rgb(68,1,84)"/><rect x="48" y="48" width="16" height="16" fill="rgb(68,1,84)"/><rect x="64" y="48" width="16" height="16" fill="rgb(68,1,84)"/><rect x="0" y="64" width="16" height="16" fill="rgb(68,1,84)"/><rect x="16" y="64" width="16" height="16" fill="rgb(68,1,84)"/><rect x="32" y="64" width="16" height="16" fill="rgb(68,1,84)"/><rect x="48" y="64" width="16" height="16" fill="rgb(68,1,84)"/><rect x="64" y="64" width="16" height="16" fill="rgb(68,1,84)"/><rect x="0" y="80" width="16" height="16" fill="rgb(68,1,84)"/><rect x="16" y="80" width="16" height="16" fill="rgb(68,1,84)"/><rect x="32" y="80" width="16" height="16" fill="rgb(68,1,84)"/><rect x="48" y="80" width="16" height="16" fill="rgb(68,1,84)"/><rect x="64" y="80" width="16" height="16" fill="rgb(68,1,84)"/></svg></g><text x="588" y="12" font-size="9" font-family="sans-serif" fill="gray">t=49</text><g transform="translate(588, 14)"><svg width="80" height="96" viewBox="0 0 80 96" xmlns="http://www.w3.org/2000/svg"><rect x="0" y="0" width="16" height="16" fill="rgb(68,1,84)"/><rect x="16" y="0" width="16" height="16" fill="rgb(68,1,84)"/><rect x="32" y="0" width="16" height="16" fill="rgb(68,1,84)"/><rect x="48" y="0" width="16" height="16" fill="rgb(68,1,84)"/><rect x="64" y="0" width="16" height="16" fill="rgb(68,1,84)"/><rect x="0" y="16" width="16" height="16" fill="rgb(68,1,84)"/><rect x="16" y="16" width="16" height="16" fill="rgb(68,1,84)"/><rect x="32" y="16" width="16" height="16" fill="rgb(68,1,84)"/><rect x="48" y="16" width="16" height="16" fill="rgb(68,1,84)"/><rect x="64" y="16" width="16" height="16" fill="rgb(68,1,84)"/><rect x="0" y="32" width="16" height="16" fill="rgb(68,1,84)"/><rect x="16" y="32" width="16" height="16" fill="rgb(68,1,84)"/><rect x="32" y="32" width="16" height="16" fill="rgb(68,1,84)"/><rect x="48" y="32" width="16" height="16" fill="rgb(68,1,84)"/><rect x="64" y="32" width="16" height="16" fill="rgb(68,1,84)"/><rect x="0" y="48" width="16" height="16" fill="rgb(68,1,84)"/><rect x="16" y="48" width="16" height="16" fill="rgb(68,1,84)"/><rect x="32" y="48" width="16" height="16" fill="rgb(68,1,84)"/><rect x="48" y="48" width="16" height="16" fill="rgb(68,1,84)"/><rect x="64" y="48" width="16" height="16" fill="rgb(68,1,84)"/><rect x="0" y="64" width="16" height="16" fill="rgb(68,1,84)"/><rect x="16" y="64" width="16" height="16" fill="rgb(68,1,84)"/><rect x="32" y="64" width="16" height="16" fill="rgb(68,1,84)"/><rect x="48" y="64" width="16" height="16" fill="rgb(68,1,84)"/><rect x="64" y="64" width="16" height="16" fill="rgb(68,1,84)"/><rect x="0" y="80" width="16" height="16" fill="rgb(68,1,84)"/><rect x="16" y="80" width="16" height="16" fill="rgb(68,1,84)"/><rect x="32" y="80" width="16" height="16" fill="rgb(68,1,84)"/><rect x="48" y="80" width="16" height="16" fill="rgb(68,1,84)"/><rect x="64" y="80" width="16" height="16" fill="rgb(68,1,84)"/></svg></g><text x="672" y="12" font-size="9" font-family="sans-serif" fill="gray">t=56</text><g transform="translate(672, 14)"><svg width="80" height="96" viewBox="0 0 80 96" xmlns="http://www.w3.org/2000/svg"><rect x="0" y="0" width="16" height="16" fill="rgb(68,1,84)"/><rect x="16" y="0" width="16" height="16" fill="rgb(68,1,84)"/><rect x="32" y="0" width="16" height="16" fill="rgb(68,1,84)"/><rect x="48" y="0" width="16" height="16" fill="rgb(68,1,84)"/><rect x="64" y="0" width="16" height="16" fill="rgb(68,1,84)"/><rect x="0" y="16" width="16" height="16" fill="rgb(68,1,84)"/><rect x="16" y="16" width="16" height="16" fill="rgb(68,1,84)"/><rect x="32" y="16" width="16" height="16" fill="rgb(68,1,84)"/><rect x="48" y="16" width="16" height="16" fill="rgb(68,1,84)"/><rect x="64" y="16" width="16" height="16" fill="rgb(68,1,84)"/><rect x="0" y="32" width="16" height="16" fill="rgb(68,1,84)"/><rect x="16" y="32" width="16" height="16" fill="rgb(68,1,84)"/><rect x="32" y="32" width="16" height="16" fill="rgb(68,1,84)"/><rect x="48" y="32" width="16" height="16" fill="rgb(68,1,84)"/><rect x="64" y="32" width="16" height="16" fill="rgb(68,1,84)"/><rect x="0" y="48" width="16" height="16" fill="rgb(68,1,84)"/><rect x="16" y="48" width="16" height="16" fill="rgb(68,1,84)"/><rect x="32" y="48" width="16" height="16" fill="rgb(68,1,84)"/><rect x="48" y="48" width="16" height="16" fill="rgb(68,1,84)"/><rect x="64" y="48" width="16" height="16" fill="rgb(68,1,84)"/><rect x="0" y="64" width="16" height="16" fill="rgb(68,1,84)"/><rect x="16" y="64" width="16" height="16" fill="rgb(68,1,84)"/><rect x="32" y="64" width="16" height="16" fill="rgb(68,1,84)"/><rect x="48" y="64" width="16" height="16" fill="rgb(68,1,84)"/><rect x="64" y="64" width="16" height="16" fill="rgb(68,1,84)"/><rect x="0" y="80" width="16" height="16" fill="rgb(68,1,84)"/><rect x="16" y="80" width="16" height="16" fill="rgb(68,1,84)"/><rect x="32" y="80" width="16" height="16" fill="rgb(68,1,84)"/><rect x="48" y="80" width="16" height="16" fill="rgb(68,1,84)"/><rect x="64" y="80" width="16" height="16" fill="rgb(68,1,84)"/></svg></g><text x="756" y="12" font-size="9" font-family="sans-serif" fill="gray">t=60</text><g transform="translate(756, 14)"><svg width="80" height="96" viewBox="0 0 80 96" xmlns="http://www.w3.org/2000/svg"><rect x="0" y="0" width="16" height="16" fill="rgb(68,1,84)"/><rect x="16" y="0" width="16" height="16" fill="rgb(68,1,84)"/><rect x="32" y="0" width="16" height="16" fill="rgb(68,1,84)"/><rect x="48" y="0" width="16" height="16" fill="rgb(68,1,84)"/><rect x="64" y="0" width="16" height="16" fill="rgb(68,1,84)"/><rect x="0" y="16" width="16" height="16" fill="rgb(68,1,84)"/><rect x="16" y="16" width="16" height="16" fill="rgb(68,1,84)"/><rect x="32" y="16" width="16" height="16" fill="rgb(68,1,84)"/><rect x="48" y="16" width="16" height="16" fill="rgb(68,1,84)"/><rect x="64" y="16" width="16" height="16" fill="rgb(68,1,84)"/><rect x="0" y="32" width="16" height="16" fill="rgb(68,1,84)"/><rect x="16" y="32" width="16" height="16" fill="rgb(68,1,84)"/><rect x="32" y="32" width="16" height="16" fill="rgb(68,1,84)"/><rect x="48" y="32" width="16" height="16" fill="rgb(68,1,84)"/><rect x="64" y="32" width="16" height="16" fill="rgb(68,1,84)"/><rect x="0" y="48" width="16" height="16" fill="rgb(68,1,84)"/><rect x="16" y="48" width="16" height="16" fill="rgb(68,1,84)"/><rect x="32" y="48" width="16" height="16" fill="rgb(68,1,84)"/><rect x="48" y="48" width="16" height="16" fill="rgb(68,1,84)"/><rect x="64" y="48" width="16" height="16" fill="rgb(68,1,84)"/><rect x="0" y="64" width="16" height="16" fill="rgb(68,1,84)"/><rect x="16" y="64" width="16" height="16" fill="rgb(68,1,84)"/><rect x="32" y="64" width="16" height="16" fill="rgb(68,1,84)"/><rect x="48" y="64" width="16" height="16" fill="rgb(68,1,84)"/><rect x="64" y="64" width="16" height="16" fill="rgb(68,1,84)"/><rect x="0" y="80" width="16" height="16" fill="rgb(68,1,84)"/><rect x="16" y="80" width="16" height="16" fill="rgb(68,1,84)"/><rect x="32" y="80" width="16" height="16" fill="rgb(68,1,84)"/><rect x="48" y="80" width="16" height="16" fill="rgb(68,1,84)"/><rect x="64" y="80" width="16" height="16" fill="rgb(68,1,84)"/></svg></g></svg>